<svg width="20" height="20" viewBox="0 0 20 20" fill="none" xmlns="http://www.w3.org/2000/svg">
<path d="M16.125 18C14.3889 18 12.6736 17.6217 10.9792 16.865C9.28472 16.1083 7.74306 15.0353 6.35417 13.6458C4.96528 12.2564 3.8925 10.7147 3.13583 9.02083C2.37917 7.32694 2.00056 5.61167 2 3.875C2 3.625 2.08333 3.41667 2.25 3.25C2.41667 3.08333 2.625 3 2.875 3H6.25C6.44444 3 6.61806 3.06611 6.77083 3.19833C6.92361 3.33056 7.01389 3.48667 7.04167 3.66667L7.58333 6.58333C7.61111 6.80556 7.60417 6.99306 7.5625 7.14583C7.52083 7.29861 7.44444 7.43056 7.33333 7.54167L5.3125 9.58333C5.59028 10.0972 5.92 10.5936 6.30167 11.0725C6.68333 11.5514 7.10361 12.0133 7.5625 12.4583C7.99306 12.8889 8.44444 13.2883 8.91667 13.6567C9.38889 14.025 9.88889 14.3617 10.4167 14.6667L12.375 12.7083C12.5 12.5833 12.6633 12.4897 12.865 12.4275C13.0667 12.3653 13.2644 12.3478 13.4583 12.375L16.3333 12.9583C16.5278 13.0139 16.6875 13.1147 16.8125 13.2608C16.9375 13.4069 17 13.57 17 13.75V17.125C17 17.375 16.9167 17.5833 16.75 17.75C16.5833 17.9167 16.375 18 16.125 18Z" fill="#010101"/>
</svg>
