<svg width="21" height="20" viewBox="0 0 21 20" fill="none" xmlns="http://www.w3.org/2000/svg">
<g clip-path="url(#clip0_800_6280)">
<path d="M20.5 10C20.5 4.47714 16.0229 0 10.5 0C4.97714 0 0.5 4.47714 0.5 10C0.5 14.9912 4.15683 19.1283 8.9375 19.8786V12.8907H6.39843V10H8.9375V7.79688C8.9375 5.29062 10.4305 3.90624 12.7147 3.90624C13.8088 3.90624 14.9531 4.10157 14.9531 4.10157V6.5625H13.6922C12.45 6.5625 12.0624 7.3334 12.0624 8.12422V10H14.8359L14.3926 12.8907H12.0624V19.8786C16.8431 19.1283 20.5 14.9912 20.5 10Z" fill="#010101"/>
</g>
<defs>
<clipPath id="clip0_800_6280">
<rect width="20" height="20" fill="white" transform="translate(0.5)"/>
</clipPath>
</defs>
</svg>
