<svg width="24" height="24" viewBox="0 0 24 24" fill="none" xmlns="http://www.w3.org/2000/svg">
<g clip-path="url(#clip0_800_1442)">
<path d="M16 16L12 12L8 16" stroke="#FAFAFA" stroke-linecap="round" stroke-linejoin="round"/>
<path d="M11.7839 11.4981C11.7898 11.4983 11.7956 11.4987 11.8015 11.4991C11.8381 11.5012 11.8739 11.5056 11.9089 11.5127L11.9265 11.5167C11.9435 11.5206 11.9595 11.5281 11.9763 11.5333C12.095 11.5696 12.2023 11.6313 12.2878 11.7169L16.2878 15.7169C16.5806 16.0097 16.5805 16.4845 16.2878 16.7774C15.995 17.0703 15.5202 17.0702 15.2273 16.7774L12.5076 14.0577V21.2471C12.5076 21.6613 12.1717 21.997 11.7576 21.9971C11.3433 21.9971 11.0076 21.6613 11.0076 21.2471V14.0577L8.28783 16.7774C7.99497 17.0703 7.52019 17.0702 7.22729 16.7774C6.93439 16.4845 6.93439 16.0097 7.22729 15.7169L11.2273 11.7169L11.2839 11.6651C11.293 11.6577 11.3029 11.6515 11.3122 11.6446C11.3298 11.6316 11.3482 11.6199 11.3669 11.6085C11.3895 11.5946 11.4127 11.5826 11.4363 11.5713C11.4548 11.5625 11.4736 11.5542 11.4929 11.5469C11.5192 11.537 11.5459 11.5294 11.573 11.5225C11.6321 11.5075 11.6937 11.4971 11.7576 11.4971C11.7664 11.4971 11.7752 11.4978 11.7839 11.4981Z" fill="#FAFAFA"/>
<path d="M8.42748 2.50591C9.74911 2.45726 11.0647 2.70936 12.2751 3.24224C13.4856 3.77516 14.5601 4.5754 15.4167 5.58306C16.1462 6.44126 16.7002 7.43149 17.0535 8.49713H17.7556C19.0329 8.49803 20.2737 8.92481 21.282 9.70904C22.2902 10.4934 23.0089 11.5913 23.324 12.8292C23.6391 14.0671 23.5328 15.375 23.0222 16.546C22.5116 17.7169 21.6252 18.6845 20.5037 19.296C20.14 19.494 19.6853 19.3597 19.4871 18.9961C19.289 18.6326 19.4225 18.1779 19.7859 17.9795C20.6148 17.5276 21.2698 16.8118 21.6472 15.9463C22.0246 15.0809 22.1037 14.1143 21.8708 13.1993C21.6379 12.2843 21.1063 11.4724 20.3611 10.8926C19.7091 10.3856 18.9252 10.0814 18.1072 10.0128L17.7546 9.99713H16.4949C16.1532 9.99703 15.855 9.76638 15.7693 9.4356C15.495 8.37465 14.9829 7.38968 14.2732 6.55474C13.5634 5.71983 12.6736 5.05588 11.6706 4.61431C10.6679 4.17295 9.57795 3.96469 8.48315 4.00494C7.38814 4.04528 6.31606 4.33365 5.34838 4.84771C4.38066 5.36185 3.54166 6.08883 2.89526 6.97369C2.2489 7.85857 1.81145 8.87886 1.61596 9.95709C1.42054 11.0353 1.47176 12.1438 1.76635 13.1993C2.06097 14.2548 2.59146 15.2297 3.31713 16.0508C3.59126 16.3611 3.56183 16.8351 3.2517 17.1094C2.94135 17.3837 2.46741 17.3543 2.19311 17.044C1.31736 16.053 0.677593 14.8764 0.322014 13.6026C-0.0335509 12.3287 -0.0955079 10.9908 0.140373 9.68951C0.376316 8.38814 0.904179 7.15692 1.68432 6.08892C2.46446 5.02098 3.47634 4.14303 4.64428 3.52252C5.81217 2.90208 7.10592 2.55462 8.42748 2.50591Z" fill="#FAFAFA"/>
<path d="M11.7839 11.4981C11.7898 11.4983 11.7956 11.4987 11.8015 11.4991C11.8381 11.5012 11.8739 11.5056 11.9089 11.5127L11.9265 11.5167C11.9435 11.5206 11.9595 11.5281 11.9763 11.5333C12.095 11.5696 12.2023 11.6313 12.2878 11.7169L16.2878 15.7169C16.5806 16.0097 16.5805 16.4845 16.2878 16.7774C15.995 17.0703 15.5202 17.0702 15.2273 16.7774L12.5076 14.0577V21.2471C12.5076 21.6613 12.1717 21.997 11.7576 21.9971C11.3433 21.9971 11.0076 21.6613 11.0076 21.2471V14.0577L8.28783 16.7774C7.99497 17.0703 7.52019 17.0702 7.22729 16.7774C6.93439 16.4845 6.93439 16.0097 7.22729 15.7169L11.2273 11.7169L11.2839 11.6651C11.293 11.6577 11.3029 11.6515 11.3122 11.6446C11.3298 11.6316 11.3482 11.6199 11.3669 11.6085C11.3895 11.5946 11.4127 11.5826 11.4363 11.5713C11.4548 11.5625 11.4736 11.5542 11.4929 11.5469C11.5192 11.537 11.5459 11.5294 11.573 11.5225C11.6321 11.5075 11.6937 11.4971 11.7576 11.4971C11.7664 11.4971 11.7752 11.4978 11.7839 11.4981Z" stroke="#FAFAFA" stroke-width="0.1" stroke-linecap="round" stroke-linejoin="round"/>
<path d="M8.42748 2.50591C9.74911 2.45726 11.0647 2.70936 12.2751 3.24224C13.4856 3.77516 14.5601 4.5754 15.4167 5.58306C16.1462 6.44126 16.7002 7.43149 17.0535 8.49713H17.7556C19.0329 8.49803 20.2737 8.92481 21.282 9.70904C22.2902 10.4934 23.0089 11.5913 23.324 12.8292C23.6391 14.0671 23.5328 15.375 23.0222 16.546C22.5116 17.7169 21.6252 18.6845 20.5037 19.296C20.14 19.494 19.6853 19.3597 19.4871 18.9961C19.289 18.6326 19.4225 18.1779 19.7859 17.9795C20.6148 17.5276 21.2698 16.8118 21.6472 15.9463C22.0246 15.0809 22.1037 14.1143 21.8708 13.1993C21.6379 12.2843 21.1063 11.4724 20.3611 10.8926C19.7091 10.3856 18.9252 10.0814 18.1072 10.0128L17.7546 9.99713H16.4949C16.1532 9.99703 15.855 9.76638 15.7693 9.4356C15.495 8.37465 14.9829 7.38968 14.2732 6.55474C13.5634 5.71983 12.6736 5.05588 11.6706 4.61431C10.6679 4.17295 9.57795 3.96469 8.48315 4.00494C7.38814 4.04528 6.31606 4.33365 5.34838 4.84771C4.38066 5.36185 3.54166 6.08883 2.89526 6.97369C2.2489 7.85857 1.81145 8.87886 1.61596 9.95709C1.42054 11.0353 1.47176 12.1438 1.76635 13.1993C2.06097 14.2548 2.59146 15.2297 3.31713 16.0508C3.59126 16.3611 3.56183 16.8351 3.2517 17.1094C2.94135 17.3837 2.46741 17.3543 2.19311 17.044C1.31736 16.053 0.677593 14.8764 0.322014 13.6026C-0.0335509 12.3287 -0.0955079 10.9908 0.140373 9.68951C0.376316 8.38814 0.904179 7.15692 1.68432 6.08892C2.46446 5.02098 3.47634 4.14303 4.64428 3.52252C5.81217 2.90208 7.10592 2.55462 8.42748 2.50591Z" stroke="#FAFAFA" stroke-width="0.1" stroke-linecap="round" stroke-linejoin="round"/>
</g>
<defs>
<clipPath id="clip0_800_1442">
<rect width="24" height="24" fill="white"/>
</clipPath>
</defs>
</svg>
