<svg width="17" height="14" viewBox="0 0 17 14" fill="none" xmlns="http://www.w3.org/2000/svg">
<path fill-rule="evenodd" clip-rule="evenodd" d="M6.20374 0.0364423C4.8802 0.189699 3.74314 1.19284 3.38952 2.51922C3.32661 2.75515 3.30735 2.94039 3.30735 3.309C3.30735 3.67762 3.32661 3.86286 3.38952 4.09879C3.66135 5.11838 4.38776 5.95267 5.35184 6.35249C5.76659 6.52451 6.12787 6.59228 6.62221 6.59085C7.92749 6.58708 9.07635 5.8372 9.62549 4.6306C9.98177 3.84787 9.98177 2.77014 9.62549 1.9874C9.22249 1.10188 8.45455 0.423822 7.54897 0.15387C7.3094 0.0824423 6.67986 -0.0114842 6.52553 0.00115232C6.49362 0.00373357 6.3488 0.0196449 6.20374 0.0364423ZM13.7378 4.16455C13.5512 4.22951 13.376 4.38015 13.2851 4.55371C13.2132 4.69097 13.1981 4.79472 13.1844 5.24494L13.1683 5.77467L12.6603 5.77552C12.2513 5.77622 12.1218 5.79016 11.996 5.8471C11.6839 5.9883 11.5339 6.27451 11.5598 6.67935C11.5789 6.97908 11.7116 7.19856 11.9493 7.32358C12.091 7.39817 12.1861 7.412 12.641 7.42429L13.1685 7.4385L13.1831 7.9687C13.1971 8.47828 13.2022 8.50618 13.3134 8.68536C13.5364 9.04462 14.0231 9.17044 14.4302 8.97411C14.7649 8.81273 14.8779 8.51434 14.8784 7.79136L14.8786 7.43869L15.4103 7.42536C15.9084 7.41288 15.9535 7.40533 16.1229 7.30613C16.2615 7.22495 16.3281 7.15052 16.4085 6.98698C16.5 6.80055 16.5106 6.74176 16.4928 6.52C16.4677 6.20975 16.3346 5.9977 16.081 5.86433C15.9275 5.78357 15.8599 5.77467 15.4001 5.77467H14.8896L14.8699 5.2622C14.8547 4.86315 14.8331 4.71085 14.7724 4.57416C14.6117 4.21217 14.1387 4.02493 13.7378 4.16455ZM5.87136 7.86291C5.18219 7.93919 4.28961 8.22235 3.64147 8.57028C2.0511 9.4241 0.872657 11.0113 0.548124 12.7367C0.429325 13.3684 0.525811 13.6989 0.889673 13.9065L1.05349 14H6.58353H12.1136L12.2731 13.915C12.5546 13.765 12.7122 13.5036 12.7128 13.1856C12.7131 12.987 12.5983 12.4451 12.4731 12.0544C11.5882 9.29377 8.82046 7.53647 5.87136 7.86291Z" fill="#010101"/>
</svg>
