<svg width="21" height="20" viewBox="0 0 21 20" fill="none" xmlns="http://www.w3.org/2000/svg">
<g clip-path="url(#clip0_800_6282)">
<path d="M18.9488 0H1.99584C1.16482 0 0.5 0.666667 0.5 1.44444V18.5556C0.5 19.3333 1.16482 20 1.99584 20H19.0041C19.8352 20 20.5 19.3333 20.5 18.5556V1.44444C20.4446 0.666667 19.7798 0 18.9488 0ZM6.42798 17.0556H3.43629V7.5H6.37258V17.0556H6.42798ZM4.93213 6.16667C3.9903 6.16667 3.21468 5.38889 3.21468 4.44444C3.21468 3.5 3.9903 2.77778 4.93213 2.77778C5.87397 2.77778 6.64959 3.55556 6.64959 4.5C6.64959 5.44445 5.87397 6.16667 4.93213 6.16667ZM17.5083 17.0556H14.572V12.3889C14.572 11.2778 14.572 9.83333 13.0208 9.83333C11.4695 9.83333 11.2479 11.0556 11.2479 12.2778V17H8.25623V7.5H11.0817V8.77778H11.1371C11.5249 8 12.5221 7.22222 13.9626 7.22222C16.9543 7.22222 17.5083 9.22222 17.5083 11.7778V17.0556Z" fill="#010101"/>
</g>
<defs>
<clipPath id="clip0_800_6282">
<rect width="20" height="20" fill="white" transform="translate(0.5)"/>
</clipPath>
</defs>
</svg>
