<svg width="21" height="20" viewBox="0 0 21 20" fill="none" xmlns="http://www.w3.org/2000/svg">
<g clip-path="url(#clip0_800_6278)">
<path fill-rule="evenodd" clip-rule="evenodd" d="M10.5 1.80176C13.1703 1.80176 13.4862 1.81208 14.541 1.86011C15.5159 1.90457 16.0454 2.06732 16.3979 2.20427C16.8647 2.38568 17.1978 2.60241 17.5479 2.95212C17.898 3.30223 18.1147 3.63528 18.2958 4.10209C18.4327 4.45458 18.5954 4.98411 18.6399 5.95902C18.6879 7.01332 18.6982 7.3297 18.6982 9.99998C18.6982 12.6702 18.6879 12.9862 18.6399 14.0409C18.5954 15.0159 18.4327 15.5453 18.2958 15.8979C18.1143 16.3647 17.8976 16.6978 17.5479 17.0479C17.1978 17.398 16.8647 17.6147 16.3979 17.7957C16.0454 17.9327 15.5159 18.0954 14.541 18.1399C13.4867 18.1879 13.1703 18.1982 10.5 18.1982C7.82971 18.1982 7.51333 18.1879 6.45903 18.1399C5.48412 18.0954 4.95459 17.9327 4.6021 17.7957C4.13528 17.6143 3.80224 17.3976 3.45213 17.0479C3.10202 16.6978 2.88528 16.3647 2.70427 15.8979C2.56732 15.5453 2.40458 15.0159 2.36011 14.0409C2.31209 12.9867 2.30177 12.6702 2.30177 9.99998C2.30177 7.3297 2.31209 7.01372 2.36011 5.95902C2.40458 4.98411 2.56732 4.45458 2.70427 4.10209C2.88568 3.63528 3.10241 3.30223 3.45213 2.95212C3.80224 2.60201 4.13528 2.38528 4.6021 2.20427C4.95459 2.06732 5.48412 1.90457 6.45903 1.86011C7.51373 1.81208 7.82971 1.80176 10.5 1.80176ZM10.5 0C7.78406 0 7.44348 0.0115116 6.37687 0.0603366C5.31264 0.108765 4.58582 0.277866 3.94951 0.525166C3.29176 0.780802 2.73404 1.12258 2.17831 1.6787C1.62258 2.23443 1.28041 2.79216 1.02517 3.4495C0.777866 4.08581 0.608765 4.81263 0.560337 5.87686C0.511512 6.94347 0.5 7.28404 0.5 9.99998C0.5 12.7159 0.511512 13.0566 0.560337 14.1231C0.608765 15.1873 0.777866 15.9141 1.02517 16.5504C1.2808 17.2082 1.62258 17.7659 2.17871 18.3217C2.73483 18.8778 3.29216 19.2196 3.9499 19.4752C4.58582 19.7224 5.31303 19.8916 6.37727 19.94C7.44387 19.9889 7.78446 20.0003 10.5004 20.0003C13.2163 20.0003 13.5569 19.9889 14.6236 19.94C15.6878 19.8916 16.415 19.7224 17.0509 19.4752C17.7087 19.2196 18.2663 18.8778 18.8221 18.3217C19.3782 17.7656 19.72 17.2082 19.9757 16.5504C20.2229 15.9146 20.392 15.1873 20.4404 14.1231C20.4893 13.0566 20.5008 12.7159 20.5008 9.99998C20.5008 7.28404 20.4893 6.94347 20.4404 5.87686C20.392 4.81263 20.2229 4.08542 19.9757 3.4495C19.72 2.79176 19.3782 2.23403 18.8221 1.67831C18.266 1.12218 17.7087 0.780406 17.0509 0.524769C16.4142 0.277866 15.6873 0.108765 14.6231 0.0603366C13.5566 0.0115116 13.2159 0 10.5 0ZM10.4999 4.86491C7.66366 4.86491 5.36491 7.16406 5.36491 9.99988C5.36491 12.8357 7.66406 15.1349 10.4999 15.1349C13.3357 15.1349 15.6349 12.8357 15.6349 9.99988C15.6349 7.16406 13.3361 4.86491 10.4999 4.86491ZM10.4999 13.3331C8.65881 13.3331 7.16667 11.8406 7.16667 9.99988C7.16667 8.15881 8.65921 6.66667 10.4999 6.66667C12.3406 6.66667 13.8331 8.15921 13.8331 9.99988C13.8331 11.8409 12.3409 13.3331 10.4999 13.3331ZM17.0381 4.66189C17.0381 5.32462 16.5009 5.86188 15.8381 5.86188C15.1754 5.86188 14.6382 5.32462 14.6382 4.66189C14.6382 3.99917 15.1754 3.46191 15.8381 3.46191C16.5009 3.46191 17.0381 3.99917 17.0381 4.66189Z" fill="#010101"/>
</g>
<defs>
<clipPath id="clip0_800_6278">
<rect width="20" height="20" fill="white" transform="translate(0.5)"/>
</clipPath>
</defs>
</svg>
