<svg width="12" height="17" viewBox="0 0 12 17" fill="none" xmlns="http://www.w3.org/2000/svg">
<path d="M6.0013 7.93131C5.44877 7.93131 4.91886 7.71182 4.52816 7.32112C4.13746 6.93042 3.91797 6.40052 3.91797 5.84798C3.91797 5.29545 4.13746 4.76554 4.52816 4.37484C4.91886 3.98414 5.44877 3.76465 6.0013 3.76465C6.55384 3.76465 7.08374 3.98414 7.47444 4.37484C7.86514 4.76554 8.08464 5.29545 8.08464 5.84798C8.08464 6.12157 8.03075 6.39248 7.92605 6.64524C7.82135 6.898 7.6679 7.12767 7.47444 7.32112C7.28099 7.51458 7.05132 7.66803 6.79856 7.77273C6.5458 7.87743 6.27489 7.93131 6.0013 7.93131ZM6.0013 0.0146484C4.45421 0.0146484 2.97047 0.62923 1.87651 1.72319C0.78255 2.81715 0.167969 4.30089 0.167969 5.84798C0.167969 10.223 6.0013 16.6813 6.0013 16.6813C6.0013 16.6813 11.8346 10.223 11.8346 5.84798C11.8346 4.30089 11.2201 2.81715 10.1261 1.72319C9.03213 0.62923 7.5484 0.0146484 6.0013 0.0146484Z" fill="#010101"/>
</svg>
