<svg width="14" height="12" viewBox="0 0 14 12" fill="none" xmlns="http://www.w3.org/2000/svg">
<path d="M1.33333 11.5827C0.966667 11.5827 0.652889 11.4522 0.392 11.1913C0.131111 10.9305 0.000444444 10.6165 0 10.2493V2.24935C0 1.88268 0.130667 1.5689 0.392 1.30802C0.653333 1.04713 0.967111 0.91646 1.33333 0.916016H12C12.3667 0.916016 12.6807 1.04668 12.942 1.30802C13.2033 1.56935 13.3338 1.88313 13.3333 2.24935V10.2493C13.3333 10.616 13.2029 10.93 12.942 11.1913C12.6811 11.4527 12.3671 11.5831 12 11.5827H1.33333ZM6.66667 6.91602L12 3.58268V2.24935L6.66667 5.58268L1.33333 2.24935V3.58268L6.66667 6.91602Z" fill="#010101"/>
</svg>
