<svg width="50" height="50" viewBox="0 0 50 50" fill="none" xmlns="http://www.w3.org/2000/svg">
<g clip-path="url(#clip0_800_1618)">
<mask id="path-1-outside-1_800_1618" maskUnits="userSpaceOnUse" x="-1" y="6" width="52" height="39" fill="black">
<rect fill="white" x="-1" y="6" width="52" height="39"/>
<path fill-rule="evenodd" clip-rule="evenodd" d="M23.0883 7.10766C20.4567 7.81703 4.4144 15.0764 2.07168 16.6179C0.261459 17.8093 0.00128128 18.7505 7.37499e-06 24.1159C-0.000948056 28.216 0.0904458 29.1803 0.556059 29.9748C1.42709 31.461 12.5254 38.6743 19.9908 42.6062C23.0791 44.2328 24.7138 44.3883 27.4944 43.3194C29.1266 42.6922 29.3018 42.6811 29.9824 43.1595C31.5983 44.2965 33.4296 43.3895 33.4452 41.4443C33.4512 40.7164 34.1035 40.3025 40.0099 37.2779C50.2257 32.0466 49.9996 32.3056 49.9996 25.8423C49.9996 19.7673 50.0302 19.8117 42.8708 15.5024C39.7383 13.6167 34.9926 10.9555 32.3251 9.58789C28.1123 7.42844 27.2282 7.09071 25.6001 7.01875C24.5689 6.97333 23.4386 7.01331 23.0883 7.10766ZM22.2376 8.48066C17.9239 10.0174 4.34148 16.23 2.47489 17.5208C0.869448 18.6306 0.496188 21.9501 2.00736 21.6782C2.27743 21.6296 2.59049 21.8813 2.70323 22.2379C2.8268 22.629 3.18478 22.8859 3.60612 22.8859C3.98989 22.8859 4.49052 23.1859 4.71855 23.5524C4.94658 23.9189 5.32843 24.1434 5.56729 24.0513C5.80646 23.9592 6.2275 24.2301 6.50425 24.6539C6.80967 25.1224 7.19344 25.352 7.48357 25.2401C7.77593 25.1275 7.96065 25.2407 7.96065 25.5327C7.96065 25.795 8.21161 26.1004 8.51798 26.2117C9.27086 26.4852 10.4827 27.2096 10.9174 27.6461C11.1129 27.8425 11.5257 28.003 11.8349 28.003C12.1438 28.003 12.5502 28.2909 12.7378 28.6427C12.9254 28.9945 13.3974 29.2823 13.7872 29.2823C14.1767 29.2823 14.6719 29.566 14.8875 29.913C15.1034 30.26 15.4777 30.4676 15.7194 30.3745C15.9611 30.2812 16.2446 30.4292 16.3493 30.7033C16.4538 30.9771 16.7589 31.2013 17.0274 31.2013C17.2955 31.2013 17.7984 31.4859 18.1446 31.8336C18.4911 32.1816 18.9742 32.3891 19.2182 32.2951C19.4624 32.2011 19.7478 32.3482 19.8526 32.6223C19.957 32.896 20.2822 33.1202 20.5749 33.1202C20.8679 33.1202 21.2663 33.3217 21.4609 33.5677C21.6552 33.8136 22.137 34.1114 22.531 34.2287C23.1985 34.428 23.2475 34.3455 23.2475 33.0211C23.2475 32.1476 23.4316 31.446 23.7253 31.2013C24.2823 30.7369 24.3291 30.9115 24.217 33.0403L24.1456 34.3995H25.289C25.9186 34.3995 26.4323 34.239 26.4323 34.0423C26.4323 33.845 26.7119 33.7586 27.0575 33.8494C27.4014 33.9399 27.8489 33.8127 28.0521 33.567C28.2549 33.3214 28.7467 33.1202 29.1441 33.1202C29.5419 33.1202 29.9537 32.8944 30.0591 32.6184C30.1824 32.2964 30.4674 32.1857 30.856 32.3095C31.2041 32.4205 31.6684 32.2938 31.9493 32.0117C32.2181 31.7418 32.7391 31.5211 33.1076 31.5211C33.4761 31.5211 33.8598 31.3052 33.9605 31.0414C34.0614 30.7775 34.4914 30.5616 34.9159 30.5616C35.3407 30.5616 35.7707 30.3458 35.8713 30.0819C35.9723 29.818 36.2975 29.6022 36.5943 29.6022C37.2787 29.6022 38.8472 28.8797 38.8504 28.5627C38.8516 28.431 39.144 28.3229 39.4997 28.3229C39.8558 28.3229 40.2294 28.107 40.33 27.8431C40.431 27.5793 40.8609 27.3634 41.2854 27.3634C41.7103 27.3634 42.1402 27.1475 42.2409 26.8837C42.3418 26.6198 42.7718 26.4039 43.1963 26.4039C43.6211 26.4039 44.0511 26.188 44.1517 25.9242C44.2527 25.6603 44.6613 25.4445 45.06 25.4445C45.532 25.4445 45.847 25.2065 45.9626 24.7632C46.0795 24.3145 46.3062 24.1463 46.6273 24.2701C46.8954 24.3734 47.2983 24.2758 47.5222 24.0539C47.7461 23.8316 48.1977 23.5476 48.5257 23.4228C49.0037 23.2409 49.0821 22.9911 48.92 22.1615C48.8091 21.5925 48.4575 20.767 48.1387 20.3273C47.411 19.3233 38.5503 13.9317 32.2015 10.6296C26.6052 7.71916 25.2167 7.41948 22.2376 8.48066ZM4.59467 19.4036C4.47429 19.599 4.51027 19.8511 4.6746 19.9633C9.11481 22.9949 14.4996 26.4864 15.5926 27.0426C18.7828 28.666 21.9599 29.883 22.1599 29.5584C22.4596 29.0709 22.0774 28.817 19.3325 27.6803C16.5137 26.513 11.5461 23.5735 7.83358 20.8761C5.17493 18.944 4.94245 18.8385 4.59467 19.4036ZM43.7383 21.266C40.266 23.3918 32.435 27.1917 29.6193 28.1169C27.7925 28.7169 26.2444 29.3687 26.1791 29.5651C25.789 30.7407 31.9362 28.6798 37.2605 25.8503C39.4501 24.6868 42.2077 23.2198 43.3887 22.5907C45.3533 21.5439 45.8333 21.0095 45.0435 20.7482C44.8791 20.6941 44.2919 20.9269 43.7383 21.266ZM1.27263 23.0429C2.31628 24.3532 15.6222 32.6872 20.5405 35.1111C22.8189 36.234 23.2733 36.3495 24.8399 36.2033C25.825 36.1112 28.1467 35.4191 30.1442 34.6221C35.4153 32.519 49.0569 25.3504 48.6209 24.9129C48.5458 24.8374 47.7145 25.2321 46.7737 25.7899C43.5409 27.7063 33.2757 32.732 29.5862 34.2044C27.3693 35.0894 25.3957 35.6759 24.6498 35.6712C22.3096 35.6571 17.9978 33.393 7.32369 26.5744C0.173568 22.007 0.685042 22.3054 1.27263 23.0429ZM0.954155 24.7795C0.954155 25.1582 8.2304 30.0877 13.3856 33.2015C19.6545 36.9875 22.2418 38.2358 23.823 38.2368C25.8298 38.2377 28.0247 37.6141 28.0247 37.0429C28.0247 36.692 27.8326 36.6242 27.3081 36.7902C25.4352 37.3822 23.0182 37.3474 21.5784 36.708C18.6054 35.3871 6.91317 28.3523 2.73762 25.3715C1.43982 24.4453 0.954155 24.2841 0.954155 24.7795ZM1.03282 27.8419C1.13887 28.7876 1.47073 29.6127 1.95163 30.1267C3.2628 31.5285 17.9283 40.6361 21.5701 42.3104C23.5889 43.2385 25.3702 43.1944 27.7119 42.1585L29.1508 41.522L29.0308 40.0083C28.9116 38.5022 28.9062 38.4958 27.9107 38.6849C27.3604 38.7891 26.3798 38.9653 25.7317 39.0757C24.5899 39.2705 24.5501 39.3229 24.4577 40.756C24.3902 41.799 24.2246 42.2352 23.895 42.2352C23.5374 42.2352 23.4498 41.8802 23.5211 40.7161C23.6017 39.4006 23.5323 39.1969 23.0052 39.1969C22.6701 39.1969 20.6886 38.3356 18.6019 37.2831C15.2092 35.572 12.2295 33.7548 3.47967 28.0619L0.866566 26.3614L1.03282 27.8419ZM46.9932 27.2652C45.3775 28.3264 34.699 33.8139 32.7235 34.5988C31.227 35.193 30.9423 35.4754 31.4945 35.8179C32.0034 36.1336 49.0442 27.1299 49.0442 26.5453C49.0442 26.1941 48.1429 26.5104 46.9932 27.2652ZM45.7002 29.7781C44.1237 30.7276 40.3615 32.7412 37.3401 34.2524C34.3187 35.7636 31.8464 37.0451 31.8464 37.1001C31.8464 37.6109 32.8923 39.5167 33.1726 39.5167C34.0022 39.5167 47.8473 32.02 48.3008 31.3254C48.855 30.4756 49.2668 27.9912 48.8474 28.0274C48.6929 28.0405 47.2766 28.8285 45.7002 29.7781ZM30.1152 36.4122C30.2349 36.7275 30.413 36.905 30.511 36.8065C30.6091 36.7083 30.5114 36.4502 30.2935 36.2331C29.9789 35.9197 29.9426 35.9564 30.1152 36.4122ZM29.2986 37.2779C29.2986 37.4539 29.4419 37.5978 29.6171 37.5978C29.7922 37.5978 29.9356 37.4539 29.9356 37.2779C29.9356 37.102 29.7922 36.9581 29.6171 36.9581C29.4419 36.9581 29.2986 37.102 29.2986 37.2779ZM30.3336 38.1293C29.8391 38.3299 29.8155 40.3543 30.2913 41.7254C30.5859 42.5742 30.791 42.7335 31.4856 42.6526C32.6066 42.5221 32.7079 41.5985 31.8264 39.5404C31.1251 37.9035 31.0547 37.8373 30.3336 38.1293ZM30.6967 40.9323C30.4069 41.6906 30.8168 42.4562 31.4474 42.3344C31.7999 42.2662 32.0056 41.9349 32.0056 41.4357C32.0056 40.5238 31.0005 40.1375 30.6967 40.9323Z"/>
</mask>
<path fill-rule="evenodd" clip-rule="evenodd" d="M23.0883 7.10766C20.4567 7.81703 4.4144 15.0764 2.07168 16.6179C0.261459 17.8093 0.00128128 18.7505 7.37499e-06 24.1159C-0.000948056 28.216 0.0904458 29.1803 0.556059 29.9748C1.42709 31.461 12.5254 38.6743 19.9908 42.6062C23.0791 44.2328 24.7138 44.3883 27.4944 43.3194C29.1266 42.6922 29.3018 42.6811 29.9824 43.1595C31.5983 44.2965 33.4296 43.3895 33.4452 41.4443C33.4512 40.7164 34.1035 40.3025 40.0099 37.2779C50.2257 32.0466 49.9996 32.3056 49.9996 25.8423C49.9996 19.7673 50.0302 19.8117 42.8708 15.5024C39.7383 13.6167 34.9926 10.9555 32.3251 9.58789C28.1123 7.42844 27.2282 7.09071 25.6001 7.01875C24.5689 6.97333 23.4386 7.01331 23.0883 7.10766ZM22.2376 8.48066C17.9239 10.0174 4.34148 16.23 2.47489 17.5208C0.869448 18.6306 0.496188 21.9501 2.00736 21.6782C2.27743 21.6296 2.59049 21.8813 2.70323 22.2379C2.8268 22.629 3.18478 22.8859 3.60612 22.8859C3.98989 22.8859 4.49052 23.1859 4.71855 23.5524C4.94658 23.9189 5.32843 24.1434 5.56729 24.0513C5.80646 23.9592 6.2275 24.2301 6.50425 24.6539C6.80967 25.1224 7.19344 25.352 7.48357 25.2401C7.77593 25.1275 7.96065 25.2407 7.96065 25.5327C7.96065 25.795 8.21161 26.1004 8.51798 26.2117C9.27086 26.4852 10.4827 27.2096 10.9174 27.6461C11.1129 27.8425 11.5257 28.003 11.8349 28.003C12.1438 28.003 12.5502 28.2909 12.7378 28.6427C12.9254 28.9945 13.3974 29.2823 13.7872 29.2823C14.1767 29.2823 14.6719 29.566 14.8875 29.913C15.1034 30.26 15.4777 30.4676 15.7194 30.3745C15.9611 30.2812 16.2446 30.4292 16.3493 30.7033C16.4538 30.9771 16.7589 31.2013 17.0274 31.2013C17.2955 31.2013 17.7984 31.4859 18.1446 31.8336C18.4911 32.1816 18.9742 32.3891 19.2182 32.2951C19.4624 32.2011 19.7478 32.3482 19.8526 32.6223C19.957 32.896 20.2822 33.1202 20.5749 33.1202C20.8679 33.1202 21.2663 33.3217 21.4609 33.5677C21.6552 33.8136 22.137 34.1114 22.531 34.2287C23.1985 34.428 23.2475 34.3455 23.2475 33.0211C23.2475 32.1476 23.4316 31.446 23.7253 31.2013C24.2823 30.7369 24.3291 30.9115 24.217 33.0403L24.1456 34.3995H25.289C25.9186 34.3995 26.4323 34.239 26.4323 34.0423C26.4323 33.845 26.7119 33.7586 27.0575 33.8494C27.4014 33.9399 27.8489 33.8127 28.0521 33.567C28.2549 33.3214 28.7467 33.1202 29.1441 33.1202C29.5419 33.1202 29.9537 32.8944 30.0591 32.6184C30.1824 32.2964 30.4674 32.1857 30.856 32.3095C31.2041 32.4205 31.6684 32.2938 31.9493 32.0117C32.2181 31.7418 32.7391 31.5211 33.1076 31.5211C33.4761 31.5211 33.8598 31.3052 33.9605 31.0414C34.0614 30.7775 34.4914 30.5616 34.9159 30.5616C35.3407 30.5616 35.7707 30.3458 35.8713 30.0819C35.9723 29.818 36.2975 29.6022 36.5943 29.6022C37.2787 29.6022 38.8472 28.8797 38.8504 28.5627C38.8516 28.431 39.144 28.3229 39.4997 28.3229C39.8558 28.3229 40.2294 28.107 40.33 27.8431C40.431 27.5793 40.8609 27.3634 41.2854 27.3634C41.7103 27.3634 42.1402 27.1475 42.2409 26.8837C42.3418 26.6198 42.7718 26.4039 43.1963 26.4039C43.6211 26.4039 44.0511 26.188 44.1517 25.9242C44.2527 25.6603 44.6613 25.4445 45.06 25.4445C45.532 25.4445 45.847 25.2065 45.9626 24.7632C46.0795 24.3145 46.3062 24.1463 46.6273 24.2701C46.8954 24.3734 47.2983 24.2758 47.5222 24.0539C47.7461 23.8316 48.1977 23.5476 48.5257 23.4228C49.0037 23.2409 49.0821 22.9911 48.92 22.1615C48.8091 21.5925 48.4575 20.767 48.1387 20.3273C47.411 19.3233 38.5503 13.9317 32.2015 10.6296C26.6052 7.71916 25.2167 7.41948 22.2376 8.48066ZM4.59467 19.4036C4.47429 19.599 4.51027 19.8511 4.6746 19.9633C9.11481 22.9949 14.4996 26.4864 15.5926 27.0426C18.7828 28.666 21.9599 29.883 22.1599 29.5584C22.4596 29.0709 22.0774 28.817 19.3325 27.6803C16.5137 26.513 11.5461 23.5735 7.83358 20.8761C5.17493 18.944 4.94245 18.8385 4.59467 19.4036ZM43.7383 21.266C40.266 23.3918 32.435 27.1917 29.6193 28.1169C27.7925 28.7169 26.2444 29.3687 26.1791 29.5651C25.789 30.7407 31.9362 28.6798 37.2605 25.8503C39.4501 24.6868 42.2077 23.2198 43.3887 22.5907C45.3533 21.5439 45.8333 21.0095 45.0435 20.7482C44.8791 20.6941 44.2919 20.9269 43.7383 21.266ZM1.27263 23.0429C2.31628 24.3532 15.6222 32.6872 20.5405 35.1111C22.8189 36.234 23.2733 36.3495 24.8399 36.2033C25.825 36.1112 28.1467 35.4191 30.1442 34.6221C35.4153 32.519 49.0569 25.3504 48.6209 24.9129C48.5458 24.8374 47.7145 25.2321 46.7737 25.7899C43.5409 27.7063 33.2757 32.732 29.5862 34.2044C27.3693 35.0894 25.3957 35.6759 24.6498 35.6712C22.3096 35.6571 17.9978 33.393 7.32369 26.5744C0.173568 22.007 0.685042 22.3054 1.27263 23.0429ZM0.954155 24.7795C0.954155 25.1582 8.2304 30.0877 13.3856 33.2015C19.6545 36.9875 22.2418 38.2358 23.823 38.2368C25.8298 38.2377 28.0247 37.6141 28.0247 37.0429C28.0247 36.692 27.8326 36.6242 27.3081 36.7902C25.4352 37.3822 23.0182 37.3474 21.5784 36.708C18.6054 35.3871 6.91317 28.3523 2.73762 25.3715C1.43982 24.4453 0.954155 24.2841 0.954155 24.7795ZM1.03282 27.8419C1.13887 28.7876 1.47073 29.6127 1.95163 30.1267C3.2628 31.5285 17.9283 40.6361 21.5701 42.3104C23.5889 43.2385 25.3702 43.1944 27.7119 42.1585L29.1508 41.522L29.0308 40.0083C28.9116 38.5022 28.9062 38.4958 27.9107 38.6849C27.3604 38.7891 26.3798 38.9653 25.7317 39.0757C24.5899 39.2705 24.5501 39.3229 24.4577 40.756C24.3902 41.799 24.2246 42.2352 23.895 42.2352C23.5374 42.2352 23.4498 41.8802 23.5211 40.7161C23.6017 39.4006 23.5323 39.1969 23.0052 39.1969C22.6701 39.1969 20.6886 38.3356 18.6019 37.2831C15.2092 35.572 12.2295 33.7548 3.47967 28.0619L0.866566 26.3614L1.03282 27.8419ZM46.9932 27.2652C45.3775 28.3264 34.699 33.8139 32.7235 34.5988C31.227 35.193 30.9423 35.4754 31.4945 35.8179C32.0034 36.1336 49.0442 27.1299 49.0442 26.5453C49.0442 26.1941 48.1429 26.5104 46.9932 27.2652ZM45.7002 29.7781C44.1237 30.7276 40.3615 32.7412 37.3401 34.2524C34.3187 35.7636 31.8464 37.0451 31.8464 37.1001C31.8464 37.6109 32.8923 39.5167 33.1726 39.5167C34.0022 39.5167 47.8473 32.02 48.3008 31.3254C48.855 30.4756 49.2668 27.9912 48.8474 28.0274C48.6929 28.0405 47.2766 28.8285 45.7002 29.7781ZM30.1152 36.4122C30.2349 36.7275 30.413 36.905 30.511 36.8065C30.6091 36.7083 30.5114 36.4502 30.2935 36.2331C29.9789 35.9197 29.9426 35.9564 30.1152 36.4122ZM29.2986 37.2779C29.2986 37.4539 29.4419 37.5978 29.6171 37.5978C29.7922 37.5978 29.9356 37.4539 29.9356 37.2779C29.9356 37.102 29.7922 36.9581 29.6171 36.9581C29.4419 36.9581 29.2986 37.102 29.2986 37.2779ZM30.3336 38.1293C29.8391 38.3299 29.8155 40.3543 30.2913 41.7254C30.5859 42.5742 30.791 42.7335 31.4856 42.6526C32.6066 42.5221 32.7079 41.5985 31.8264 39.5404C31.1251 37.9035 31.0547 37.8373 30.3336 38.1293ZM30.6967 40.9323C30.4069 41.6906 30.8168 42.4562 31.4474 42.3344C31.7999 42.2662 32.0056 41.9349 32.0056 41.4357C32.0056 40.5238 31.0005 40.1375 30.6967 40.9323Z" fill="#19AE1A"/>
<path fill-rule="evenodd" clip-rule="evenodd" d="M23.0883 7.10766C20.4567 7.81703 4.4144 15.0764 2.07168 16.6179C0.261459 17.8093 0.00128128 18.7505 7.37499e-06 24.1159C-0.000948056 28.216 0.0904458 29.1803 0.556059 29.9748C1.42709 31.461 12.5254 38.6743 19.9908 42.6062C23.0791 44.2328 24.7138 44.3883 27.4944 43.3194C29.1266 42.6922 29.3018 42.6811 29.9824 43.1595C31.5983 44.2965 33.4296 43.3895 33.4452 41.4443C33.4512 40.7164 34.1035 40.3025 40.0099 37.2779C50.2257 32.0466 49.9996 32.3056 49.9996 25.8423C49.9996 19.7673 50.0302 19.8117 42.8708 15.5024C39.7383 13.6167 34.9926 10.9555 32.3251 9.58789C28.1123 7.42844 27.2282 7.09071 25.6001 7.01875C24.5689 6.97333 23.4386 7.01331 23.0883 7.10766ZM22.2376 8.48066C17.9239 10.0174 4.34148 16.23 2.47489 17.5208C0.869448 18.6306 0.496188 21.9501 2.00736 21.6782C2.27743 21.6296 2.59049 21.8813 2.70323 22.2379C2.8268 22.629 3.18478 22.8859 3.60612 22.8859C3.98989 22.8859 4.49052 23.1859 4.71855 23.5524C4.94658 23.9189 5.32843 24.1434 5.56729 24.0513C5.80646 23.9592 6.2275 24.2301 6.50425 24.6539C6.80967 25.1224 7.19344 25.352 7.48357 25.2401C7.77593 25.1275 7.96065 25.2407 7.96065 25.5327C7.96065 25.795 8.21161 26.1004 8.51798 26.2117C9.27086 26.4852 10.4827 27.2096 10.9174 27.6461C11.1129 27.8425 11.5257 28.003 11.8349 28.003C12.1438 28.003 12.5502 28.2909 12.7378 28.6427C12.9254 28.9945 13.3974 29.2823 13.7872 29.2823C14.1767 29.2823 14.6719 29.566 14.8875 29.913C15.1034 30.26 15.4777 30.4676 15.7194 30.3745C15.9611 30.2812 16.2446 30.4292 16.3493 30.7033C16.4538 30.9771 16.7589 31.2013 17.0274 31.2013C17.2955 31.2013 17.7984 31.4859 18.1446 31.8336C18.4911 32.1816 18.9742 32.3891 19.2182 32.2951C19.4624 32.2011 19.7478 32.3482 19.8526 32.6223C19.957 32.896 20.2822 33.1202 20.5749 33.1202C20.8679 33.1202 21.2663 33.3217 21.4609 33.5677C21.6552 33.8136 22.137 34.1114 22.531 34.2287C23.1985 34.428 23.2475 34.3455 23.2475 33.0211C23.2475 32.1476 23.4316 31.446 23.7253 31.2013C24.2823 30.7369 24.3291 30.9115 24.217 33.0403L24.1456 34.3995H25.289C25.9186 34.3995 26.4323 34.239 26.4323 34.0423C26.4323 33.845 26.7119 33.7586 27.0575 33.8494C27.4014 33.9399 27.8489 33.8127 28.0521 33.567C28.2549 33.3214 28.7467 33.1202 29.1441 33.1202C29.5419 33.1202 29.9537 32.8944 30.0591 32.6184C30.1824 32.2964 30.4674 32.1857 30.856 32.3095C31.2041 32.4205 31.6684 32.2938 31.9493 32.0117C32.2181 31.7418 32.7391 31.5211 33.1076 31.5211C33.4761 31.5211 33.8598 31.3052 33.9605 31.0414C34.0614 30.7775 34.4914 30.5616 34.9159 30.5616C35.3407 30.5616 35.7707 30.3458 35.8713 30.0819C35.9723 29.818 36.2975 29.6022 36.5943 29.6022C37.2787 29.6022 38.8472 28.8797 38.8504 28.5627C38.8516 28.431 39.144 28.3229 39.4997 28.3229C39.8558 28.3229 40.2294 28.107 40.33 27.8431C40.431 27.5793 40.8609 27.3634 41.2854 27.3634C41.7103 27.3634 42.1402 27.1475 42.2409 26.8837C42.3418 26.6198 42.7718 26.4039 43.1963 26.4039C43.6211 26.4039 44.0511 26.188 44.1517 25.9242C44.2527 25.6603 44.6613 25.4445 45.06 25.4445C45.532 25.4445 45.847 25.2065 45.9626 24.7632C46.0795 24.3145 46.3062 24.1463 46.6273 24.2701C46.8954 24.3734 47.2983 24.2758 47.5222 24.0539C47.7461 23.8316 48.1977 23.5476 48.5257 23.4228C49.0037 23.2409 49.0821 22.9911 48.92 22.1615C48.8091 21.5925 48.4575 20.767 48.1387 20.3273C47.411 19.3233 38.5503 13.9317 32.2015 10.6296C26.6052 7.71916 25.2167 7.41948 22.2376 8.48066ZM4.59467 19.4036C4.47429 19.599 4.51027 19.8511 4.6746 19.9633C9.11481 22.9949 14.4996 26.4864 15.5926 27.0426C18.7828 28.666 21.9599 29.883 22.1599 29.5584C22.4596 29.0709 22.0774 28.817 19.3325 27.6803C16.5137 26.513 11.5461 23.5735 7.83358 20.8761C5.17493 18.944 4.94245 18.8385 4.59467 19.4036ZM43.7383 21.266C40.266 23.3918 32.435 27.1917 29.6193 28.1169C27.7925 28.7169 26.2444 29.3687 26.1791 29.5651C25.789 30.7407 31.9362 28.6798 37.2605 25.8503C39.4501 24.6868 42.2077 23.2198 43.3887 22.5907C45.3533 21.5439 45.8333 21.0095 45.0435 20.7482C44.8791 20.6941 44.2919 20.9269 43.7383 21.266ZM1.27263 23.0429C2.31628 24.3532 15.6222 32.6872 20.5405 35.1111C22.8189 36.234 23.2733 36.3495 24.8399 36.2033C25.825 36.1112 28.1467 35.4191 30.1442 34.6221C35.4153 32.519 49.0569 25.3504 48.6209 24.9129C48.5458 24.8374 47.7145 25.2321 46.7737 25.7899C43.5409 27.7063 33.2757 32.732 29.5862 34.2044C27.3693 35.0894 25.3957 35.6759 24.6498 35.6712C22.3096 35.6571 17.9978 33.393 7.32369 26.5744C0.173568 22.007 0.685042 22.3054 1.27263 23.0429ZM0.954155 24.7795C0.954155 25.1582 8.2304 30.0877 13.3856 33.2015C19.6545 36.9875 22.2418 38.2358 23.823 38.2368C25.8298 38.2377 28.0247 37.6141 28.0247 37.0429C28.0247 36.692 27.8326 36.6242 27.3081 36.7902C25.4352 37.3822 23.0182 37.3474 21.5784 36.708C18.6054 35.3871 6.91317 28.3523 2.73762 25.3715C1.43982 24.4453 0.954155 24.2841 0.954155 24.7795ZM1.03282 27.8419C1.13887 28.7876 1.47073 29.6127 1.95163 30.1267C3.2628 31.5285 17.9283 40.6361 21.5701 42.3104C23.5889 43.2385 25.3702 43.1944 27.7119 42.1585L29.1508 41.522L29.0308 40.0083C28.9116 38.5022 28.9062 38.4958 27.9107 38.6849C27.3604 38.7891 26.3798 38.9653 25.7317 39.0757C24.5899 39.2705 24.5501 39.3229 24.4577 40.756C24.3902 41.799 24.2246 42.2352 23.895 42.2352C23.5374 42.2352 23.4498 41.8802 23.5211 40.7161C23.6017 39.4006 23.5323 39.1969 23.0052 39.1969C22.6701 39.1969 20.6886 38.3356 18.6019 37.2831C15.2092 35.572 12.2295 33.7548 3.47967 28.0619L0.866566 26.3614L1.03282 27.8419ZM46.9932 27.2652C45.3775 28.3264 34.699 33.8139 32.7235 34.5988C31.227 35.193 30.9423 35.4754 31.4945 35.8179C32.0034 36.1336 49.0442 27.1299 49.0442 26.5453C49.0442 26.1941 48.1429 26.5104 46.9932 27.2652ZM45.7002 29.7781C44.1237 30.7276 40.3615 32.7412 37.3401 34.2524C34.3187 35.7636 31.8464 37.0451 31.8464 37.1001C31.8464 37.6109 32.8923 39.5167 33.1726 39.5167C34.0022 39.5167 47.8473 32.02 48.3008 31.3254C48.855 30.4756 49.2668 27.9912 48.8474 28.0274C48.6929 28.0405 47.2766 28.8285 45.7002 29.7781ZM30.1152 36.4122C30.2349 36.7275 30.413 36.905 30.511 36.8065C30.6091 36.7083 30.5114 36.4502 30.2935 36.2331C29.9789 35.9197 29.9426 35.9564 30.1152 36.4122ZM29.2986 37.2779C29.2986 37.4539 29.4419 37.5978 29.6171 37.5978C29.7922 37.5978 29.9356 37.4539 29.9356 37.2779C29.9356 37.102 29.7922 36.9581 29.6171 36.9581C29.4419 36.9581 29.2986 37.102 29.2986 37.2779ZM30.3336 38.1293C29.8391 38.3299 29.8155 40.3543 30.2913 41.7254C30.5859 42.5742 30.791 42.7335 31.4856 42.6526C32.6066 42.5221 32.7079 41.5985 31.8264 39.5404C31.1251 37.9035 31.0547 37.8373 30.3336 38.1293ZM30.6967 40.9323C30.4069 41.6906 30.8168 42.4562 31.4474 42.3344C31.7999 42.2662 32.0056 41.9349 32.0056 41.4357C32.0056 40.5238 31.0005 40.1375 30.6967 40.9323Z" stroke="#19AE1A" stroke-width="0.2" mask="url(#path-1-outside-1_800_1618)"/>
</g>
<defs>
<clipPath id="clip0_800_1618">
<rect width="50" height="50" fill="white"/>
</clipPath>
</defs>
</svg>
