<svg width="50" height="50" viewBox="0 0 50 50" fill="none" xmlns="http://www.w3.org/2000/svg">
<mask id="path-1-outside-1_800_1629" maskUnits="userSpaceOnUse" x="4" y="8" width="42" height="35" fill="black">
<rect fill="white" x="4" y="8" width="42" height="35"/>
<path d="M23.914 35.1498C24.2139 35.1498 24.457 35.3944 24.457 35.6962C24.457 35.9979 24.2139 36.2425 23.914 36.2425C23.6141 36.2425 23.371 35.9979 23.371 35.6962C23.371 35.3944 23.6141 35.1498 23.914 35.1498Z"/>
<path d="M19.2081 34.0571C19.508 34.0571 19.7511 34.3017 19.7511 34.6034C19.7511 34.9052 19.508 35.1498 19.2081 35.1498C18.9083 35.1498 18.6652 34.9052 18.6652 34.6034C18.6652 34.3017 18.9083 34.0571 19.2081 34.0571Z"/>
<path d="M30.4299 34.0571C30.7297 34.0571 30.9729 34.3017 30.9729 34.6034C30.9729 34.9052 30.7297 35.1498 30.4299 35.1498C30.13 35.1498 29.8869 34.9052 29.8869 34.6034C29.8869 34.3017 30.13 34.0571 30.4299 34.0571Z"/>
<path d="M22.4661 33.6928C22.7659 33.6928 23.0091 33.9374 23.0091 34.2392C23.0091 34.5409 22.7659 34.7856 22.4661 34.7856C22.1662 34.7856 21.9231 34.5409 21.9231 34.2392C21.9231 33.9374 22.1662 33.6928 22.4661 33.6928Z"/>
<path d="M27.1719 33.6928C27.4718 33.6928 27.7149 33.9374 27.7149 34.2392C27.7149 34.5409 27.4718 34.7856 27.1719 34.7856C26.8721 34.7856 26.629 34.5409 26.629 34.2392C26.629 33.9374 26.8721 33.6928 27.1719 33.6928Z"/>
<path d="M15.5882 32.6001C15.8881 32.6001 16.1312 32.8447 16.1312 33.1465C16.1312 33.4482 15.8881 33.6928 15.5882 33.6928C15.2884 33.6928 15.0452 33.4482 15.0452 33.1465C15.0452 32.8447 15.2884 32.6001 15.5882 32.6001Z"/>
<path d="M18.8462 32.6001C19.146 32.6001 19.3891 32.8447 19.3891 33.1465C19.3891 33.4482 19.146 33.6928 18.8462 33.6928C18.5463 33.6928 18.3032 33.4482 18.3032 33.1465C18.3032 32.8447 18.5463 32.6001 18.8462 32.6001Z"/>
<path d="M32.2398 32.6001C32.5397 32.6001 32.7828 32.8447 32.7828 33.1465C32.7828 33.4482 32.5397 33.6928 32.2398 33.6928C31.9399 33.6928 31.6968 33.4482 31.6968 33.1465C31.6968 32.8447 31.9399 32.6001 32.2398 32.6001Z"/>
<path d="M35.1357 32.2358C35.4356 32.2358 35.6787 32.4805 35.6787 32.7822C35.6787 33.084 35.4356 33.3286 35.1357 33.3286C34.8359 33.3286 34.5928 33.084 34.5928 32.7822C34.5928 32.4805 34.8359 32.2358 35.1357 32.2358Z"/>
<path d="M37.6697 31.5074C37.9696 31.5074 38.2127 31.752 38.2127 32.0537C38.2127 32.3555 37.9696 32.6001 37.6697 32.6001C37.3698 32.6001 37.1267 32.3555 37.1267 32.0537C37.1267 31.752 37.3698 31.5074 37.6697 31.5074Z"/>
<path d="M11.9683 31.1431C12.2682 31.1431 12.5113 31.3877 12.5113 31.6895C12.5113 31.9912 12.2682 32.2358 11.9683 32.2358C11.6684 32.2358 11.4253 31.9912 11.4253 31.6895C11.4253 31.3877 11.6684 31.1431 11.9683 31.1431Z"/>
<path d="M14.8643 30.7789C15.1641 30.7789 15.4072 31.0235 15.4072 31.3252C15.4072 31.627 15.1641 31.8716 14.8643 31.8716C14.5644 31.8716 14.3213 31.627 14.3213 31.3252C14.3213 31.0235 14.5644 30.7789 14.8643 30.7789Z"/>
<path d="M34.7738 30.7789C35.0736 30.7789 35.3167 31.0235 35.3167 31.3252C35.3167 31.627 35.0736 31.8716 34.7738 31.8716C34.4739 31.8716 34.2308 31.627 34.2308 31.3252C34.2308 31.0235 34.4739 30.7789 34.7738 30.7789Z"/>
<path d="M8.34842 30.4146C8.6483 30.4146 8.8914 30.6592 8.8914 30.961C8.8914 31.2627 8.6483 31.5074 8.34842 31.5074C8.04853 31.5074 7.80543 31.2627 7.80543 30.961C7.80543 30.6592 8.04853 30.4146 8.34842 30.4146Z"/>
<path d="M41.6516 30.0504C41.9515 30.0504 42.1946 30.295 42.1946 30.5967C42.1946 30.8985 41.9515 31.1431 41.6516 31.1431C41.3517 31.1431 41.1086 30.8985 41.1086 30.5967C41.1086 30.295 41.3517 30.0504 41.6516 30.0504Z"/>
<path d="M10.1584 29.3219C10.4583 29.3219 10.7014 29.5665 10.7014 29.8683C10.7014 30.17 10.4583 30.4146 10.1584 30.4146C9.85849 30.4146 9.61538 30.17 9.61538 29.8683C9.61538 29.5665 9.85849 29.3219 10.1584 29.3219Z"/>
<path d="M39.8416 28.9576C40.1415 28.9576 40.3846 29.2023 40.3846 29.504C40.3846 29.8058 40.1415 30.0504 39.8416 30.0504C39.5417 30.0504 39.2986 29.8058 39.2986 29.504C39.2986 29.2023 39.5417 28.9576 39.8416 28.9576Z"/>
<path d="M25.181 28.2292C25.3809 28.2292 25.543 28.3922 25.543 28.5934C25.543 28.7946 25.3809 28.9576 25.181 28.9576C24.9811 28.9576 24.819 28.7946 24.819 28.5934C24.819 28.3922 24.9811 28.2292 25.181 28.2292Z"/>
<path d="M21.9231 27.5007C22.123 27.5007 22.2851 27.6637 22.2851 27.8649C22.2851 28.0661 22.123 28.2292 21.9231 28.2292C21.7232 28.2292 21.5611 28.0661 21.5611 27.8649C21.5611 27.6637 21.7232 27.5007 21.9231 27.5007Z"/>
<path d="M23.371 27.1364C23.571 27.1364 23.733 27.2995 23.733 27.5007C23.733 27.7018 23.571 27.8649 23.371 27.8649C23.1711 27.8649 23.0091 27.7018 23.0091 27.5007C23.0091 27.2995 23.1711 27.1364 23.371 27.1364Z"/>
<path d="M28.0769 27.1364C28.2768 27.1364 28.4389 27.2995 28.4389 27.5007C28.4389 27.7018 28.2768 27.8649 28.0769 27.8649C27.877 27.8649 27.7149 27.7018 27.7149 27.5007C27.7149 27.2995 27.877 27.1364 28.0769 27.1364Z"/>
<path d="M26.629 26.7722C26.8289 26.7722 26.991 26.9353 26.991 27.1364C26.991 27.3376 26.8289 27.5007 26.629 27.5007C26.429 27.5007 26.267 27.3376 26.267 27.1364C26.267 26.9353 26.429 26.7722 26.629 26.7722Z"/>
<path d="M18.6652 26.4079C18.8651 26.4079 19.0271 26.571 19.0271 26.7722C19.0271 26.9734 18.8651 27.1364 18.6652 27.1364C18.4652 27.1364 18.3032 26.9734 18.3032 26.7722C18.3032 26.571 18.4652 26.4079 18.6652 26.4079Z"/>
<path d="M20.4751 26.4079C20.675 26.4079 20.8371 26.571 20.8371 26.7722C20.8371 26.9734 20.675 27.1364 20.4751 27.1364C20.2752 27.1364 20.1131 26.9734 20.1131 26.7722C20.1131 26.571 20.2752 26.4079 20.4751 26.4079Z"/>
<path d="M29.1629 26.0437C29.3628 26.0437 29.5249 26.2068 29.5249 26.4079C29.5249 26.6091 29.3628 26.7722 29.1629 26.7722C28.963 26.7722 28.8009 26.6091 28.8009 26.4079C28.8009 26.2068 28.963 26.0437 29.1629 26.0437Z"/>
<path d="M31.3348 25.6795C31.5348 25.6795 31.6968 25.8425 31.6968 26.0437C31.6968 26.2449 31.5348 26.4079 31.3348 26.4079C31.1349 26.4079 30.9729 26.2449 30.9729 26.0437C30.9729 25.8425 31.1349 25.6795 31.3348 25.6795Z"/>
<path d="M17.9412 24.951C18.1411 24.951 18.3032 25.114 18.3032 25.3152C18.3032 25.5164 18.1411 25.6795 17.9412 25.6795C17.7413 25.6795 17.5792 25.5164 17.5792 25.3152C17.5792 25.114 17.7413 24.951 17.9412 24.951Z"/>
<path d="M15.7692 24.5867C15.9692 24.5867 16.1312 24.7498 16.1312 24.951C16.1312 25.1521 15.9692 25.3152 15.7692 25.3152C15.5693 25.3152 15.4072 25.1521 15.4072 24.951C15.4072 24.7498 15.5693 24.5867 15.7692 24.5867Z"/>
<path d="M34.5928 24.5867C34.7927 24.5867 34.9548 24.7498 34.9548 24.951C34.9548 25.1521 34.7927 25.3152 34.5928 25.3152C34.3928 25.3152 34.2308 25.1521 34.2308 24.951C34.2308 24.7498 34.3928 24.5867 34.5928 24.5867Z"/>
<path d="M32.7828 24.2225C32.9827 24.2225 33.1448 24.3856 33.1448 24.5867C33.1448 24.7879 32.9827 24.951 32.7828 24.951C32.5829 24.951 32.4208 24.7879 32.4208 24.5867C32.4208 24.3856 32.5829 24.2225 32.7828 24.2225Z"/>
<path d="M13.5973 23.8582C13.7972 23.8582 13.9593 24.0213 13.9593 24.2225C13.9593 24.4236 13.7972 24.5867 13.5973 24.5867C13.3974 24.5867 13.2353 24.4236 13.2353 24.2225C13.2353 24.0213 13.3974 23.8582 13.5973 23.8582Z"/>
<path d="M36.4027 23.1297C36.6026 23.1297 36.7647 23.2928 36.7647 23.494C36.7647 23.6952 36.6026 23.8582 36.4027 23.8582C36.2028 23.8582 36.0407 23.6952 36.0407 23.494C36.0407 23.2928 36.2028 23.1297 36.4027 23.1297Z"/>
<path d="M38.9367 23.1297C39.1366 23.1297 39.2986 23.2928 39.2986 23.494C39.2986 23.6952 39.1366 23.8582 38.9367 23.8582C38.7367 23.8582 38.5747 23.6952 38.5747 23.494C38.5747 23.2928 38.7367 23.1297 38.9367 23.1297Z"/>
<path d="M11.7873 22.7655C11.9873 22.7655 12.1493 22.9286 12.1493 23.1297C12.1493 23.3309 11.9873 23.494 11.7873 23.494C11.5874 23.494 11.4253 23.3309 11.4253 23.1297C11.4253 22.9286 11.5874 22.7655 11.7873 22.7655Z"/>
<path d="M13.2353 22.7655C13.4352 22.7655 13.5973 22.9286 13.5973 23.1297C13.5973 23.3309 13.4352 23.494 13.2353 23.494C13.0354 23.494 12.8733 23.3309 12.8733 23.1297C12.8733 22.9286 13.0354 22.7655 13.2353 22.7655Z"/>
<path d="M41.1086 22.4013C41.3085 22.4013 41.4706 22.5643 41.4706 22.7655C41.4706 22.9667 41.3085 23.1297 41.1086 23.1297C40.9087 23.1297 40.7466 22.9667 40.7466 22.7655C40.7466 22.5643 40.9087 22.4013 41.1086 22.4013Z"/>
<path d="M10.3394 21.8549C10.5393 21.8549 10.7014 22.018 10.7014 22.2191C10.7014 22.4203 10.5393 22.5834 10.3394 22.5834C10.1394 22.5834 9.97738 22.4203 9.97738 22.2191C9.97738 22.018 10.1394 21.8549 10.3394 21.8549Z"/>
<path d="M8.34842 21.3085C8.6483 21.3085 8.8914 21.5531 8.8914 21.8549C8.8914 22.1566 8.6483 22.4013 8.34842 22.4013C8.04853 22.4013 7.80543 22.1566 7.80543 21.8549C7.80543 21.5531 8.04853 21.3085 8.34842 21.3085Z"/>
<path d="M40.3846 21.3085C40.5845 21.3085 40.7466 21.4716 40.7466 21.6728C40.7466 21.8739 40.5845 22.037 40.3846 22.037C40.1847 22.037 40.0226 21.8739 40.0226 21.6728C40.0226 21.4716 40.1847 21.3085 40.3846 21.3085Z"/>
<path d="M42.5566 20.58C42.7565 20.58 42.9186 20.7431 42.9186 20.9443C42.9186 21.1454 42.7565 21.3085 42.5566 21.3085C42.3566 21.3085 42.1946 21.1454 42.1946 20.9443C42.1946 20.7431 42.3566 20.58 42.5566 20.58Z"/>
<path fill-rule="evenodd" clip-rule="evenodd" d="M44.095 15.6485V19.1241L43.429 19.3991L43.8179 20.3766C44.2193 21.3865 44.0535 22.5311 43.3919 23.3827L43.6146 24.4484C43.8385 25.5187 43.234 26.537 42.2879 26.9024C42.3178 27.8462 42.6707 28.7522 43.2904 29.4649L44.6737 31.0553L45 30.9461V34.0638L24.0904 42L5 34.0578V30.9347L5.20822 31.0111C6.37416 29.8995 7.17639 28.4564 7.50742 26.8736C6.46611 26.4844 5.72402 25.4758 5.72398 24.2926V22.3486L5.74342 22.2999L6.7442 19.7815L5.181 19.1227V15.6496L5.36447 15.5866L24.369 9.03024L24.4563 9L44.095 15.6485ZM24.3665 38.4429V41.311L44.457 33.6857V31.7044L24.3665 38.4429ZM5.54299 33.6921L23.8235 41.2975V38.4365L5.54299 31.7158V33.6921ZM8.03344 27.0119C7.6951 28.6052 6.90965 30.0646 5.77347 31.2189L24.0986 37.9563L44.1148 31.2427L42.8818 29.8249C42.2039 29.0454 41.8074 28.0618 41.7499 27.0326C41.6746 27.0406 41.5981 27.0454 41.5204 27.0454C41.097 27.0454 40.6908 27.2147 40.3913 27.516L39.1275 28.7876C38.4991 29.42 37.5912 29.682 36.7251 29.4809C36.1091 29.3379 35.4618 29.4913 34.9738 29.8956L34.0706 30.6441C33.184 31.3787 32.0712 31.7805 30.9227 31.7805H30.707C30.1915 31.7805 29.6789 31.8605 29.1876 32.0178L25.9972 33.039L25.6801 33.1724C24.4497 33.6883 23.0397 33.5112 21.9733 32.7064L21.6169 32.4375C21.0831 32.0347 20.3999 31.8892 19.7497 32.0402C18.9081 32.2356 18.0239 32.0303 17.3526 31.4835L15.4087 29.9003C14.9079 29.4923 14.2484 29.339 13.6206 29.4848C12.7642 29.6837 11.8654 29.4402 11.2242 28.8353L9.9597 27.6422C9.55326 27.2588 9.0169 27.0454 8.45977 27.0454C8.31474 27.0454 8.17237 27.0338 8.03344 27.0119ZM6.26697 24.2926C6.26701 25.5111 7.24874 26.499 8.45977 26.499C9.1548 26.499 9.82381 26.7652 10.3309 27.2435L11.5957 28.4365C12.1049 28.9168 12.8186 29.1102 13.4987 28.9523C14.2893 28.7688 15.1199 28.9619 15.7505 29.4756L17.6941 31.0588C18.2356 31.4999 18.9489 31.6653 19.6278 31.5077C20.4339 31.3206 21.281 31.5009 21.9429 32.0004L22.2992 32.2693C23.2118 32.9579 24.4183 33.1095 25.4712 32.668L25.8007 32.53L25.8113 32.5254L25.8226 32.5218L29.0233 31.497C29.5677 31.3228 30.1357 31.2342 30.707 31.2342H30.9227C31.9453 31.2341 32.9362 30.8763 33.7256 30.2222L34.6288 29.4738C35.247 28.9615 36.0667 28.7676 36.8471 28.9488C37.5307 29.1075 38.2475 28.9005 38.7436 28.4013L40.0074 27.1297C40.4087 26.7259 40.9529 26.499 41.5204 26.499C42.5349 26.499 43.2923 25.5596 43.0833 24.5608L42.9037 23.7035L41.9468 24.1481C41.2057 24.4923 40.427 24.7476 39.6267 24.9086L39.048 25.025C38.4246 25.1504 37.8146 25.3363 37.2267 25.5799L35.0633 26.4759L32.9468 27.4078C32.4144 27.6422 31.8633 27.8316 31.2995 27.9734L30.8484 28.0869C30.2686 28.2327 29.7031 28.4314 29.159 28.6802L27.0259 29.6555C26.326 29.9757 25.566 30.1414 24.7971 30.1414C24.0581 30.1414 23.3269 29.9883 22.6492 29.6918L20.0802 28.5681C19.6869 28.3961 19.2763 28.2665 18.8557 28.1819L17.8213 27.9738C17.1022 27.829 16.4486 27.4544 15.958 26.9059L15.8357 26.7693C15.3707 26.2495 14.7084 25.9526 14.0134 25.9526H13.3421C12.6191 25.9526 11.9583 25.5415 11.635 24.8909C11.4036 24.4254 10.9308 24.1314 10.4136 24.1314H9.9247C9.56496 24.1314 9.20882 24.0591 8.87726 23.9187L6.26697 22.8125V24.2926ZM24.5602 27.2069L24.456 27.2503L24.352 27.2061L7.24512 19.9928L6.34651 22.2533L9.08795 23.415C9.35283 23.5272 9.63731 23.585 9.9247 23.5851H10.4136C11.1365 23.5851 11.7974 23.9962 12.1207 24.6468C12.352 25.1123 12.8249 25.4062 13.3421 25.4063H14.0134C14.8623 25.4063 15.6715 25.7688 16.2394 26.4037L16.3617 26.5406C16.7741 27.0016 17.3233 27.3164 17.9277 27.4381L18.9625 27.6462C19.4207 27.7384 19.868 27.8795 20.2966 28.067L22.8655 29.191C23.4749 29.4576 24.1326 29.5951 24.7971 29.5951C25.4885 29.5951 26.172 29.4462 26.8015 29.1583L28.9342 28.1826C29.5082 27.92 30.1048 27.7108 30.7166 27.5569L31.168 27.443C31.7023 27.3086 32.2245 27.1295 32.7291 26.9074L34.8459 25.9754L34.8515 25.9733L37.0199 25.0748C37.6402 24.8178 38.2838 24.6216 38.9416 24.4893L39.5199 24.3729C40.2785 24.2203 41.0167 23.9781 41.7191 23.6519L42.9295 23.0896C43.5011 22.3866 43.6501 21.4254 43.3138 20.5793L42.927 19.6068L24.5602 27.2069ZM24.7285 23.68V26.5467L43.552 18.7578V16.2454L24.7285 23.68ZM5.72398 18.7592L24.1855 26.5435V23.6786L5.72398 16.2482V18.7592ZM6.23197 15.8644L24.4577 23.1998L43.0303 15.8644L24.4574 9.5766L6.23197 15.8644Z"/>
</mask>
<path d="M23.914 35.1498C24.2139 35.1498 24.457 35.3944 24.457 35.6962C24.457 35.9979 24.2139 36.2425 23.914 36.2425C23.6141 36.2425 23.371 35.9979 23.371 35.6962C23.371 35.3944 23.6141 35.1498 23.914 35.1498Z" fill="#19AE1A"/>
<path d="M19.2081 34.0571C19.508 34.0571 19.7511 34.3017 19.7511 34.6034C19.7511 34.9052 19.508 35.1498 19.2081 35.1498C18.9083 35.1498 18.6652 34.9052 18.6652 34.6034C18.6652 34.3017 18.9083 34.0571 19.2081 34.0571Z" fill="#19AE1A"/>
<path d="M30.4299 34.0571C30.7297 34.0571 30.9729 34.3017 30.9729 34.6034C30.9729 34.9052 30.7297 35.1498 30.4299 35.1498C30.13 35.1498 29.8869 34.9052 29.8869 34.6034C29.8869 34.3017 30.13 34.0571 30.4299 34.0571Z" fill="#19AE1A"/>
<path d="M22.4661 33.6928C22.7659 33.6928 23.0091 33.9374 23.0091 34.2392C23.0091 34.5409 22.7659 34.7856 22.4661 34.7856C22.1662 34.7856 21.9231 34.5409 21.9231 34.2392C21.9231 33.9374 22.1662 33.6928 22.4661 33.6928Z" fill="#19AE1A"/>
<path d="M27.1719 33.6928C27.4718 33.6928 27.7149 33.9374 27.7149 34.2392C27.7149 34.5409 27.4718 34.7856 27.1719 34.7856C26.8721 34.7856 26.629 34.5409 26.629 34.2392C26.629 33.9374 26.8721 33.6928 27.1719 33.6928Z" fill="#19AE1A"/>
<path d="M15.5882 32.6001C15.8881 32.6001 16.1312 32.8447 16.1312 33.1465C16.1312 33.4482 15.8881 33.6928 15.5882 33.6928C15.2884 33.6928 15.0452 33.4482 15.0452 33.1465C15.0452 32.8447 15.2884 32.6001 15.5882 32.6001Z" fill="#19AE1A"/>
<path d="M18.8462 32.6001C19.146 32.6001 19.3891 32.8447 19.3891 33.1465C19.3891 33.4482 19.146 33.6928 18.8462 33.6928C18.5463 33.6928 18.3032 33.4482 18.3032 33.1465C18.3032 32.8447 18.5463 32.6001 18.8462 32.6001Z" fill="#19AE1A"/>
<path d="M32.2398 32.6001C32.5397 32.6001 32.7828 32.8447 32.7828 33.1465C32.7828 33.4482 32.5397 33.6928 32.2398 33.6928C31.9399 33.6928 31.6968 33.4482 31.6968 33.1465C31.6968 32.8447 31.9399 32.6001 32.2398 32.6001Z" fill="#19AE1A"/>
<path d="M35.1357 32.2358C35.4356 32.2358 35.6787 32.4805 35.6787 32.7822C35.6787 33.084 35.4356 33.3286 35.1357 33.3286C34.8359 33.3286 34.5928 33.084 34.5928 32.7822C34.5928 32.4805 34.8359 32.2358 35.1357 32.2358Z" fill="#19AE1A"/>
<path d="M37.6697 31.5074C37.9696 31.5074 38.2127 31.752 38.2127 32.0537C38.2127 32.3555 37.9696 32.6001 37.6697 32.6001C37.3698 32.6001 37.1267 32.3555 37.1267 32.0537C37.1267 31.752 37.3698 31.5074 37.6697 31.5074Z" fill="#19AE1A"/>
<path d="M11.9683 31.1431C12.2682 31.1431 12.5113 31.3877 12.5113 31.6895C12.5113 31.9912 12.2682 32.2358 11.9683 32.2358C11.6684 32.2358 11.4253 31.9912 11.4253 31.6895C11.4253 31.3877 11.6684 31.1431 11.9683 31.1431Z" fill="#19AE1A"/>
<path d="M14.8643 30.7789C15.1641 30.7789 15.4072 31.0235 15.4072 31.3252C15.4072 31.627 15.1641 31.8716 14.8643 31.8716C14.5644 31.8716 14.3213 31.627 14.3213 31.3252C14.3213 31.0235 14.5644 30.7789 14.8643 30.7789Z" fill="#19AE1A"/>
<path d="M34.7738 30.7789C35.0736 30.7789 35.3167 31.0235 35.3167 31.3252C35.3167 31.627 35.0736 31.8716 34.7738 31.8716C34.4739 31.8716 34.2308 31.627 34.2308 31.3252C34.2308 31.0235 34.4739 30.7789 34.7738 30.7789Z" fill="#19AE1A"/>
<path d="M8.34842 30.4146C8.6483 30.4146 8.8914 30.6592 8.8914 30.961C8.8914 31.2627 8.6483 31.5074 8.34842 31.5074C8.04853 31.5074 7.80543 31.2627 7.80543 30.961C7.80543 30.6592 8.04853 30.4146 8.34842 30.4146Z" fill="#19AE1A"/>
<path d="M41.6516 30.0504C41.9515 30.0504 42.1946 30.295 42.1946 30.5967C42.1946 30.8985 41.9515 31.1431 41.6516 31.1431C41.3517 31.1431 41.1086 30.8985 41.1086 30.5967C41.1086 30.295 41.3517 30.0504 41.6516 30.0504Z" fill="#19AE1A"/>
<path d="M10.1584 29.3219C10.4583 29.3219 10.7014 29.5665 10.7014 29.8683C10.7014 30.17 10.4583 30.4146 10.1584 30.4146C9.85849 30.4146 9.61538 30.17 9.61538 29.8683C9.61538 29.5665 9.85849 29.3219 10.1584 29.3219Z" fill="#19AE1A"/>
<path d="M39.8416 28.9576C40.1415 28.9576 40.3846 29.2023 40.3846 29.504C40.3846 29.8058 40.1415 30.0504 39.8416 30.0504C39.5417 30.0504 39.2986 29.8058 39.2986 29.504C39.2986 29.2023 39.5417 28.9576 39.8416 28.9576Z" fill="#19AE1A"/>
<path d="M25.181 28.2292C25.3809 28.2292 25.543 28.3922 25.543 28.5934C25.543 28.7946 25.3809 28.9576 25.181 28.9576C24.9811 28.9576 24.819 28.7946 24.819 28.5934C24.819 28.3922 24.9811 28.2292 25.181 28.2292Z" fill="#19AE1A"/>
<path d="M21.9231 27.5007C22.123 27.5007 22.2851 27.6637 22.2851 27.8649C22.2851 28.0661 22.123 28.2292 21.9231 28.2292C21.7232 28.2292 21.5611 28.0661 21.5611 27.8649C21.5611 27.6637 21.7232 27.5007 21.9231 27.5007Z" fill="#19AE1A"/>
<path d="M23.371 27.1364C23.571 27.1364 23.733 27.2995 23.733 27.5007C23.733 27.7018 23.571 27.8649 23.371 27.8649C23.1711 27.8649 23.0091 27.7018 23.0091 27.5007C23.0091 27.2995 23.1711 27.1364 23.371 27.1364Z" fill="#19AE1A"/>
<path d="M28.0769 27.1364C28.2768 27.1364 28.4389 27.2995 28.4389 27.5007C28.4389 27.7018 28.2768 27.8649 28.0769 27.8649C27.877 27.8649 27.7149 27.7018 27.7149 27.5007C27.7149 27.2995 27.877 27.1364 28.0769 27.1364Z" fill="#19AE1A"/>
<path d="M26.629 26.7722C26.8289 26.7722 26.991 26.9353 26.991 27.1364C26.991 27.3376 26.8289 27.5007 26.629 27.5007C26.429 27.5007 26.267 27.3376 26.267 27.1364C26.267 26.9353 26.429 26.7722 26.629 26.7722Z" fill="#19AE1A"/>
<path d="M18.6652 26.4079C18.8651 26.4079 19.0271 26.571 19.0271 26.7722C19.0271 26.9734 18.8651 27.1364 18.6652 27.1364C18.4652 27.1364 18.3032 26.9734 18.3032 26.7722C18.3032 26.571 18.4652 26.4079 18.6652 26.4079Z" fill="#19AE1A"/>
<path d="M20.4751 26.4079C20.675 26.4079 20.8371 26.571 20.8371 26.7722C20.8371 26.9734 20.675 27.1364 20.4751 27.1364C20.2752 27.1364 20.1131 26.9734 20.1131 26.7722C20.1131 26.571 20.2752 26.4079 20.4751 26.4079Z" fill="#19AE1A"/>
<path d="M29.1629 26.0437C29.3628 26.0437 29.5249 26.2068 29.5249 26.4079C29.5249 26.6091 29.3628 26.7722 29.1629 26.7722C28.963 26.7722 28.8009 26.6091 28.8009 26.4079C28.8009 26.2068 28.963 26.0437 29.1629 26.0437Z" fill="#19AE1A"/>
<path d="M31.3348 25.6795C31.5348 25.6795 31.6968 25.8425 31.6968 26.0437C31.6968 26.2449 31.5348 26.4079 31.3348 26.4079C31.1349 26.4079 30.9729 26.2449 30.9729 26.0437C30.9729 25.8425 31.1349 25.6795 31.3348 25.6795Z" fill="#19AE1A"/>
<path d="M17.9412 24.951C18.1411 24.951 18.3032 25.114 18.3032 25.3152C18.3032 25.5164 18.1411 25.6795 17.9412 25.6795C17.7413 25.6795 17.5792 25.5164 17.5792 25.3152C17.5792 25.114 17.7413 24.951 17.9412 24.951Z" fill="#19AE1A"/>
<path d="M15.7692 24.5867C15.9692 24.5867 16.1312 24.7498 16.1312 24.951C16.1312 25.1521 15.9692 25.3152 15.7692 25.3152C15.5693 25.3152 15.4072 25.1521 15.4072 24.951C15.4072 24.7498 15.5693 24.5867 15.7692 24.5867Z" fill="#19AE1A"/>
<path d="M34.5928 24.5867C34.7927 24.5867 34.9548 24.7498 34.9548 24.951C34.9548 25.1521 34.7927 25.3152 34.5928 25.3152C34.3928 25.3152 34.2308 25.1521 34.2308 24.951C34.2308 24.7498 34.3928 24.5867 34.5928 24.5867Z" fill="#19AE1A"/>
<path d="M32.7828 24.2225C32.9827 24.2225 33.1448 24.3856 33.1448 24.5867C33.1448 24.7879 32.9827 24.951 32.7828 24.951C32.5829 24.951 32.4208 24.7879 32.4208 24.5867C32.4208 24.3856 32.5829 24.2225 32.7828 24.2225Z" fill="#19AE1A"/>
<path d="M13.5973 23.8582C13.7972 23.8582 13.9593 24.0213 13.9593 24.2225C13.9593 24.4236 13.7972 24.5867 13.5973 24.5867C13.3974 24.5867 13.2353 24.4236 13.2353 24.2225C13.2353 24.0213 13.3974 23.8582 13.5973 23.8582Z" fill="#19AE1A"/>
<path d="M36.4027 23.1297C36.6026 23.1297 36.7647 23.2928 36.7647 23.494C36.7647 23.6952 36.6026 23.8582 36.4027 23.8582C36.2028 23.8582 36.0407 23.6952 36.0407 23.494C36.0407 23.2928 36.2028 23.1297 36.4027 23.1297Z" fill="#19AE1A"/>
<path d="M38.9367 23.1297C39.1366 23.1297 39.2986 23.2928 39.2986 23.494C39.2986 23.6952 39.1366 23.8582 38.9367 23.8582C38.7367 23.8582 38.5747 23.6952 38.5747 23.494C38.5747 23.2928 38.7367 23.1297 38.9367 23.1297Z" fill="#19AE1A"/>
<path d="M11.7873 22.7655C11.9873 22.7655 12.1493 22.9286 12.1493 23.1297C12.1493 23.3309 11.9873 23.494 11.7873 23.494C11.5874 23.494 11.4253 23.3309 11.4253 23.1297C11.4253 22.9286 11.5874 22.7655 11.7873 22.7655Z" fill="#19AE1A"/>
<path d="M13.2353 22.7655C13.4352 22.7655 13.5973 22.9286 13.5973 23.1297C13.5973 23.3309 13.4352 23.494 13.2353 23.494C13.0354 23.494 12.8733 23.3309 12.8733 23.1297C12.8733 22.9286 13.0354 22.7655 13.2353 22.7655Z" fill="#19AE1A"/>
<path d="M41.1086 22.4013C41.3085 22.4013 41.4706 22.5643 41.4706 22.7655C41.4706 22.9667 41.3085 23.1297 41.1086 23.1297C40.9087 23.1297 40.7466 22.9667 40.7466 22.7655C40.7466 22.5643 40.9087 22.4013 41.1086 22.4013Z" fill="#19AE1A"/>
<path d="M10.3394 21.8549C10.5393 21.8549 10.7014 22.018 10.7014 22.2191C10.7014 22.4203 10.5393 22.5834 10.3394 22.5834C10.1394 22.5834 9.97738 22.4203 9.97738 22.2191C9.97738 22.018 10.1394 21.8549 10.3394 21.8549Z" fill="#19AE1A"/>
<path d="M8.34842 21.3085C8.6483 21.3085 8.8914 21.5531 8.8914 21.8549C8.8914 22.1566 8.6483 22.4013 8.34842 22.4013C8.04853 22.4013 7.80543 22.1566 7.80543 21.8549C7.80543 21.5531 8.04853 21.3085 8.34842 21.3085Z" fill="#19AE1A"/>
<path d="M40.3846 21.3085C40.5845 21.3085 40.7466 21.4716 40.7466 21.6728C40.7466 21.8739 40.5845 22.037 40.3846 22.037C40.1847 22.037 40.0226 21.8739 40.0226 21.6728C40.0226 21.4716 40.1847 21.3085 40.3846 21.3085Z" fill="#19AE1A"/>
<path d="M42.5566 20.58C42.7565 20.58 42.9186 20.7431 42.9186 20.9443C42.9186 21.1454 42.7565 21.3085 42.5566 21.3085C42.3566 21.3085 42.1946 21.1454 42.1946 20.9443C42.1946 20.7431 42.3566 20.58 42.5566 20.58Z" fill="#19AE1A"/>
<path fill-rule="evenodd" clip-rule="evenodd" d="M44.095 15.6485V19.1241L43.429 19.3991L43.8179 20.3766C44.2193 21.3865 44.0535 22.5311 43.3919 23.3827L43.6146 24.4484C43.8385 25.5187 43.234 26.537 42.2879 26.9024C42.3178 27.8462 42.6707 28.7522 43.2904 29.4649L44.6737 31.0553L45 30.9461V34.0638L24.0904 42L5 34.0578V30.9347L5.20822 31.0111C6.37416 29.8995 7.17639 28.4564 7.50742 26.8736C6.46611 26.4844 5.72402 25.4758 5.72398 24.2926V22.3486L5.74342 22.2999L6.7442 19.7815L5.181 19.1227V15.6496L5.36447 15.5866L24.369 9.03024L24.4563 9L44.095 15.6485ZM24.3665 38.4429V41.311L44.457 33.6857V31.7044L24.3665 38.4429ZM5.54299 33.6921L23.8235 41.2975V38.4365L5.54299 31.7158V33.6921ZM8.03344 27.0119C7.6951 28.6052 6.90965 30.0646 5.77347 31.2189L24.0986 37.9563L44.1148 31.2427L42.8818 29.8249C42.2039 29.0454 41.8074 28.0618 41.7499 27.0326C41.6746 27.0406 41.5981 27.0454 41.5204 27.0454C41.097 27.0454 40.6908 27.2147 40.3913 27.516L39.1275 28.7876C38.4991 29.42 37.5912 29.682 36.7251 29.4809C36.1091 29.3379 35.4618 29.4913 34.9738 29.8956L34.0706 30.6441C33.184 31.3787 32.0712 31.7805 30.9227 31.7805H30.707C30.1915 31.7805 29.6789 31.8605 29.1876 32.0178L25.9972 33.039L25.6801 33.1724C24.4497 33.6883 23.0397 33.5112 21.9733 32.7064L21.6169 32.4375C21.0831 32.0347 20.3999 31.8892 19.7497 32.0402C18.9081 32.2356 18.0239 32.0303 17.3526 31.4835L15.4087 29.9003C14.9079 29.4923 14.2484 29.339 13.6206 29.4848C12.7642 29.6837 11.8654 29.4402 11.2242 28.8353L9.9597 27.6422C9.55326 27.2588 9.0169 27.0454 8.45977 27.0454C8.31474 27.0454 8.17237 27.0338 8.03344 27.0119ZM6.26697 24.2926C6.26701 25.5111 7.24874 26.499 8.45977 26.499C9.1548 26.499 9.82381 26.7652 10.3309 27.2435L11.5957 28.4365C12.1049 28.9168 12.8186 29.1102 13.4987 28.9523C14.2893 28.7688 15.1199 28.9619 15.7505 29.4756L17.6941 31.0588C18.2356 31.4999 18.9489 31.6653 19.6278 31.5077C20.4339 31.3206 21.281 31.5009 21.9429 32.0004L22.2992 32.2693C23.2118 32.9579 24.4183 33.1095 25.4712 32.668L25.8007 32.53L25.8113 32.5254L25.8226 32.5218L29.0233 31.497C29.5677 31.3228 30.1357 31.2342 30.707 31.2342H30.9227C31.9453 31.2341 32.9362 30.8763 33.7256 30.2222L34.6288 29.4738C35.247 28.9615 36.0667 28.7676 36.8471 28.9488C37.5307 29.1075 38.2475 28.9005 38.7436 28.4013L40.0074 27.1297C40.4087 26.7259 40.9529 26.499 41.5204 26.499C42.5349 26.499 43.2923 25.5596 43.0833 24.5608L42.9037 23.7035L41.9468 24.1481C41.2057 24.4923 40.427 24.7476 39.6267 24.9086L39.048 25.025C38.4246 25.1504 37.8146 25.3363 37.2267 25.5799L35.0633 26.4759L32.9468 27.4078C32.4144 27.6422 31.8633 27.8316 31.2995 27.9734L30.8484 28.0869C30.2686 28.2327 29.7031 28.4314 29.159 28.6802L27.0259 29.6555C26.326 29.9757 25.566 30.1414 24.7971 30.1414C24.0581 30.1414 23.3269 29.9883 22.6492 29.6918L20.0802 28.5681C19.6869 28.3961 19.2763 28.2665 18.8557 28.1819L17.8213 27.9738C17.1022 27.829 16.4486 27.4544 15.958 26.9059L15.8357 26.7693C15.3707 26.2495 14.7084 25.9526 14.0134 25.9526H13.3421C12.6191 25.9526 11.9583 25.5415 11.635 24.8909C11.4036 24.4254 10.9308 24.1314 10.4136 24.1314H9.9247C9.56496 24.1314 9.20882 24.0591 8.87726 23.9187L6.26697 22.8125V24.2926ZM24.5602 27.2069L24.456 27.2503L24.352 27.2061L7.24512 19.9928L6.34651 22.2533L9.08795 23.415C9.35283 23.5272 9.63731 23.585 9.9247 23.5851H10.4136C11.1365 23.5851 11.7974 23.9962 12.1207 24.6468C12.352 25.1123 12.8249 25.4062 13.3421 25.4063H14.0134C14.8623 25.4063 15.6715 25.7688 16.2394 26.4037L16.3617 26.5406C16.7741 27.0016 17.3233 27.3164 17.9277 27.4381L18.9625 27.6462C19.4207 27.7384 19.868 27.8795 20.2966 28.067L22.8655 29.191C23.4749 29.4576 24.1326 29.5951 24.7971 29.5951C25.4885 29.5951 26.172 29.4462 26.8015 29.1583L28.9342 28.1826C29.5082 27.92 30.1048 27.7108 30.7166 27.5569L31.168 27.443C31.7023 27.3086 32.2245 27.1295 32.7291 26.9074L34.8459 25.9754L34.8515 25.9733L37.0199 25.0748C37.6402 24.8178 38.2838 24.6216 38.9416 24.4893L39.5199 24.3729C40.2785 24.2203 41.0167 23.9781 41.7191 23.6519L42.9295 23.0896C43.5011 22.3866 43.6501 21.4254 43.3138 20.5793L42.927 19.6068L24.5602 27.2069ZM24.7285 23.68V26.5467L43.552 18.7578V16.2454L24.7285 23.68ZM5.72398 18.7592L24.1855 26.5435V23.6786L5.72398 16.2482V18.7592ZM6.23197 15.8644L24.4577 23.1998L43.0303 15.8644L24.4574 9.5766L6.23197 15.8644Z" fill="#19AE1A"/>
<path d="M23.914 35.1498C24.2139 35.1498 24.457 35.3944 24.457 35.6962C24.457 35.9979 24.2139 36.2425 23.914 36.2425C23.6141 36.2425 23.371 35.9979 23.371 35.6962C23.371 35.3944 23.6141 35.1498 23.914 35.1498Z" stroke="#19AE1A" stroke-width="0.4" mask="url(#path-1-outside-1_800_1629)"/>
<path d="M19.2081 34.0571C19.508 34.0571 19.7511 34.3017 19.7511 34.6034C19.7511 34.9052 19.508 35.1498 19.2081 35.1498C18.9083 35.1498 18.6652 34.9052 18.6652 34.6034C18.6652 34.3017 18.9083 34.0571 19.2081 34.0571Z" stroke="#19AE1A" stroke-width="0.4" mask="url(#path-1-outside-1_800_1629)"/>
<path d="M30.4299 34.0571C30.7297 34.0571 30.9729 34.3017 30.9729 34.6034C30.9729 34.9052 30.7297 35.1498 30.4299 35.1498C30.13 35.1498 29.8869 34.9052 29.8869 34.6034C29.8869 34.3017 30.13 34.0571 30.4299 34.0571Z" stroke="#19AE1A" stroke-width="0.4" mask="url(#path-1-outside-1_800_1629)"/>
<path d="M22.4661 33.6928C22.7659 33.6928 23.0091 33.9374 23.0091 34.2392C23.0091 34.5409 22.7659 34.7856 22.4661 34.7856C22.1662 34.7856 21.9231 34.5409 21.9231 34.2392C21.9231 33.9374 22.1662 33.6928 22.4661 33.6928Z" stroke="#19AE1A" stroke-width="0.4" mask="url(#path-1-outside-1_800_1629)"/>
<path d="M27.1719 33.6928C27.4718 33.6928 27.7149 33.9374 27.7149 34.2392C27.7149 34.5409 27.4718 34.7856 27.1719 34.7856C26.8721 34.7856 26.629 34.5409 26.629 34.2392C26.629 33.9374 26.8721 33.6928 27.1719 33.6928Z" stroke="#19AE1A" stroke-width="0.4" mask="url(#path-1-outside-1_800_1629)"/>
<path d="M15.5882 32.6001C15.8881 32.6001 16.1312 32.8447 16.1312 33.1465C16.1312 33.4482 15.8881 33.6928 15.5882 33.6928C15.2884 33.6928 15.0452 33.4482 15.0452 33.1465C15.0452 32.8447 15.2884 32.6001 15.5882 32.6001Z" stroke="#19AE1A" stroke-width="0.4" mask="url(#path-1-outside-1_800_1629)"/>
<path d="M18.8462 32.6001C19.146 32.6001 19.3891 32.8447 19.3891 33.1465C19.3891 33.4482 19.146 33.6928 18.8462 33.6928C18.5463 33.6928 18.3032 33.4482 18.3032 33.1465C18.3032 32.8447 18.5463 32.6001 18.8462 32.6001Z" stroke="#19AE1A" stroke-width="0.4" mask="url(#path-1-outside-1_800_1629)"/>
<path d="M32.2398 32.6001C32.5397 32.6001 32.7828 32.8447 32.7828 33.1465C32.7828 33.4482 32.5397 33.6928 32.2398 33.6928C31.9399 33.6928 31.6968 33.4482 31.6968 33.1465C31.6968 32.8447 31.9399 32.6001 32.2398 32.6001Z" stroke="#19AE1A" stroke-width="0.4" mask="url(#path-1-outside-1_800_1629)"/>
<path d="M35.1357 32.2358C35.4356 32.2358 35.6787 32.4805 35.6787 32.7822C35.6787 33.084 35.4356 33.3286 35.1357 33.3286C34.8359 33.3286 34.5928 33.084 34.5928 32.7822C34.5928 32.4805 34.8359 32.2358 35.1357 32.2358Z" stroke="#19AE1A" stroke-width="0.4" mask="url(#path-1-outside-1_800_1629)"/>
<path d="M37.6697 31.5074C37.9696 31.5074 38.2127 31.752 38.2127 32.0537C38.2127 32.3555 37.9696 32.6001 37.6697 32.6001C37.3698 32.6001 37.1267 32.3555 37.1267 32.0537C37.1267 31.752 37.3698 31.5074 37.6697 31.5074Z" stroke="#19AE1A" stroke-width="0.4" mask="url(#path-1-outside-1_800_1629)"/>
<path d="M11.9683 31.1431C12.2682 31.1431 12.5113 31.3877 12.5113 31.6895C12.5113 31.9912 12.2682 32.2358 11.9683 32.2358C11.6684 32.2358 11.4253 31.9912 11.4253 31.6895C11.4253 31.3877 11.6684 31.1431 11.9683 31.1431Z" stroke="#19AE1A" stroke-width="0.4" mask="url(#path-1-outside-1_800_1629)"/>
<path d="M14.8643 30.7789C15.1641 30.7789 15.4072 31.0235 15.4072 31.3252C15.4072 31.627 15.1641 31.8716 14.8643 31.8716C14.5644 31.8716 14.3213 31.627 14.3213 31.3252C14.3213 31.0235 14.5644 30.7789 14.8643 30.7789Z" stroke="#19AE1A" stroke-width="0.4" mask="url(#path-1-outside-1_800_1629)"/>
<path d="M34.7738 30.7789C35.0736 30.7789 35.3167 31.0235 35.3167 31.3252C35.3167 31.627 35.0736 31.8716 34.7738 31.8716C34.4739 31.8716 34.2308 31.627 34.2308 31.3252C34.2308 31.0235 34.4739 30.7789 34.7738 30.7789Z" stroke="#19AE1A" stroke-width="0.4" mask="url(#path-1-outside-1_800_1629)"/>
<path d="M8.34842 30.4146C8.6483 30.4146 8.8914 30.6592 8.8914 30.961C8.8914 31.2627 8.6483 31.5074 8.34842 31.5074C8.04853 31.5074 7.80543 31.2627 7.80543 30.961C7.80543 30.6592 8.04853 30.4146 8.34842 30.4146Z" stroke="#19AE1A" stroke-width="0.4" mask="url(#path-1-outside-1_800_1629)"/>
<path d="M41.6516 30.0504C41.9515 30.0504 42.1946 30.295 42.1946 30.5967C42.1946 30.8985 41.9515 31.1431 41.6516 31.1431C41.3517 31.1431 41.1086 30.8985 41.1086 30.5967C41.1086 30.295 41.3517 30.0504 41.6516 30.0504Z" stroke="#19AE1A" stroke-width="0.4" mask="url(#path-1-outside-1_800_1629)"/>
<path d="M10.1584 29.3219C10.4583 29.3219 10.7014 29.5665 10.7014 29.8683C10.7014 30.17 10.4583 30.4146 10.1584 30.4146C9.85849 30.4146 9.61538 30.17 9.61538 29.8683C9.61538 29.5665 9.85849 29.3219 10.1584 29.3219Z" stroke="#19AE1A" stroke-width="0.4" mask="url(#path-1-outside-1_800_1629)"/>
<path d="M39.8416 28.9576C40.1415 28.9576 40.3846 29.2023 40.3846 29.504C40.3846 29.8058 40.1415 30.0504 39.8416 30.0504C39.5417 30.0504 39.2986 29.8058 39.2986 29.504C39.2986 29.2023 39.5417 28.9576 39.8416 28.9576Z" stroke="#19AE1A" stroke-width="0.4" mask="url(#path-1-outside-1_800_1629)"/>
<path d="M25.181 28.2292C25.3809 28.2292 25.543 28.3922 25.543 28.5934C25.543 28.7946 25.3809 28.9576 25.181 28.9576C24.9811 28.9576 24.819 28.7946 24.819 28.5934C24.819 28.3922 24.9811 28.2292 25.181 28.2292Z" stroke="#19AE1A" stroke-width="0.4" mask="url(#path-1-outside-1_800_1629)"/>
<path d="M21.9231 27.5007C22.123 27.5007 22.2851 27.6637 22.2851 27.8649C22.2851 28.0661 22.123 28.2292 21.9231 28.2292C21.7232 28.2292 21.5611 28.0661 21.5611 27.8649C21.5611 27.6637 21.7232 27.5007 21.9231 27.5007Z" stroke="#19AE1A" stroke-width="0.4" mask="url(#path-1-outside-1_800_1629)"/>
<path d="M23.371 27.1364C23.571 27.1364 23.733 27.2995 23.733 27.5007C23.733 27.7018 23.571 27.8649 23.371 27.8649C23.1711 27.8649 23.0091 27.7018 23.0091 27.5007C23.0091 27.2995 23.1711 27.1364 23.371 27.1364Z" stroke="#19AE1A" stroke-width="0.4" mask="url(#path-1-outside-1_800_1629)"/>
<path d="M28.0769 27.1364C28.2768 27.1364 28.4389 27.2995 28.4389 27.5007C28.4389 27.7018 28.2768 27.8649 28.0769 27.8649C27.877 27.8649 27.7149 27.7018 27.7149 27.5007C27.7149 27.2995 27.877 27.1364 28.0769 27.1364Z" stroke="#19AE1A" stroke-width="0.4" mask="url(#path-1-outside-1_800_1629)"/>
<path d="M26.629 26.7722C26.8289 26.7722 26.991 26.9353 26.991 27.1364C26.991 27.3376 26.8289 27.5007 26.629 27.5007C26.429 27.5007 26.267 27.3376 26.267 27.1364C26.267 26.9353 26.429 26.7722 26.629 26.7722Z" stroke="#19AE1A" stroke-width="0.4" mask="url(#path-1-outside-1_800_1629)"/>
<path d="M18.6652 26.4079C18.8651 26.4079 19.0271 26.571 19.0271 26.7722C19.0271 26.9734 18.8651 27.1364 18.6652 27.1364C18.4652 27.1364 18.3032 26.9734 18.3032 26.7722C18.3032 26.571 18.4652 26.4079 18.6652 26.4079Z" stroke="#19AE1A" stroke-width="0.4" mask="url(#path-1-outside-1_800_1629)"/>
<path d="M20.4751 26.4079C20.675 26.4079 20.8371 26.571 20.8371 26.7722C20.8371 26.9734 20.675 27.1364 20.4751 27.1364C20.2752 27.1364 20.1131 26.9734 20.1131 26.7722C20.1131 26.571 20.2752 26.4079 20.4751 26.4079Z" stroke="#19AE1A" stroke-width="0.4" mask="url(#path-1-outside-1_800_1629)"/>
<path d="M29.1629 26.0437C29.3628 26.0437 29.5249 26.2068 29.5249 26.4079C29.5249 26.6091 29.3628 26.7722 29.1629 26.7722C28.963 26.7722 28.8009 26.6091 28.8009 26.4079C28.8009 26.2068 28.963 26.0437 29.1629 26.0437Z" stroke="#19AE1A" stroke-width="0.4" mask="url(#path-1-outside-1_800_1629)"/>
<path d="M31.3348 25.6795C31.5348 25.6795 31.6968 25.8425 31.6968 26.0437C31.6968 26.2449 31.5348 26.4079 31.3348 26.4079C31.1349 26.4079 30.9729 26.2449 30.9729 26.0437C30.9729 25.8425 31.1349 25.6795 31.3348 25.6795Z" stroke="#19AE1A" stroke-width="0.4" mask="url(#path-1-outside-1_800_1629)"/>
<path d="M17.9412 24.951C18.1411 24.951 18.3032 25.114 18.3032 25.3152C18.3032 25.5164 18.1411 25.6795 17.9412 25.6795C17.7413 25.6795 17.5792 25.5164 17.5792 25.3152C17.5792 25.114 17.7413 24.951 17.9412 24.951Z" stroke="#19AE1A" stroke-width="0.4" mask="url(#path-1-outside-1_800_1629)"/>
<path d="M15.7692 24.5867C15.9692 24.5867 16.1312 24.7498 16.1312 24.951C16.1312 25.1521 15.9692 25.3152 15.7692 25.3152C15.5693 25.3152 15.4072 25.1521 15.4072 24.951C15.4072 24.7498 15.5693 24.5867 15.7692 24.5867Z" stroke="#19AE1A" stroke-width="0.4" mask="url(#path-1-outside-1_800_1629)"/>
<path d="M34.5928 24.5867C34.7927 24.5867 34.9548 24.7498 34.9548 24.951C34.9548 25.1521 34.7927 25.3152 34.5928 25.3152C34.3928 25.3152 34.2308 25.1521 34.2308 24.951C34.2308 24.7498 34.3928 24.5867 34.5928 24.5867Z" stroke="#19AE1A" stroke-width="0.4" mask="url(#path-1-outside-1_800_1629)"/>
<path d="M32.7828 24.2225C32.9827 24.2225 33.1448 24.3856 33.1448 24.5867C33.1448 24.7879 32.9827 24.951 32.7828 24.951C32.5829 24.951 32.4208 24.7879 32.4208 24.5867C32.4208 24.3856 32.5829 24.2225 32.7828 24.2225Z" stroke="#19AE1A" stroke-width="0.4" mask="url(#path-1-outside-1_800_1629)"/>
<path d="M13.5973 23.8582C13.7972 23.8582 13.9593 24.0213 13.9593 24.2225C13.9593 24.4236 13.7972 24.5867 13.5973 24.5867C13.3974 24.5867 13.2353 24.4236 13.2353 24.2225C13.2353 24.0213 13.3974 23.8582 13.5973 23.8582Z" stroke="#19AE1A" stroke-width="0.4" mask="url(#path-1-outside-1_800_1629)"/>
<path d="M36.4027 23.1297C36.6026 23.1297 36.7647 23.2928 36.7647 23.494C36.7647 23.6952 36.6026 23.8582 36.4027 23.8582C36.2028 23.8582 36.0407 23.6952 36.0407 23.494C36.0407 23.2928 36.2028 23.1297 36.4027 23.1297Z" stroke="#19AE1A" stroke-width="0.4" mask="url(#path-1-outside-1_800_1629)"/>
<path d="M38.9367 23.1297C39.1366 23.1297 39.2986 23.2928 39.2986 23.494C39.2986 23.6952 39.1366 23.8582 38.9367 23.8582C38.7367 23.8582 38.5747 23.6952 38.5747 23.494C38.5747 23.2928 38.7367 23.1297 38.9367 23.1297Z" stroke="#19AE1A" stroke-width="0.4" mask="url(#path-1-outside-1_800_1629)"/>
<path d="M11.7873 22.7655C11.9873 22.7655 12.1493 22.9286 12.1493 23.1297C12.1493 23.3309 11.9873 23.494 11.7873 23.494C11.5874 23.494 11.4253 23.3309 11.4253 23.1297C11.4253 22.9286 11.5874 22.7655 11.7873 22.7655Z" stroke="#19AE1A" stroke-width="0.4" mask="url(#path-1-outside-1_800_1629)"/>
<path d="M13.2353 22.7655C13.4352 22.7655 13.5973 22.9286 13.5973 23.1297C13.5973 23.3309 13.4352 23.494 13.2353 23.494C13.0354 23.494 12.8733 23.3309 12.8733 23.1297C12.8733 22.9286 13.0354 22.7655 13.2353 22.7655Z" stroke="#19AE1A" stroke-width="0.4" mask="url(#path-1-outside-1_800_1629)"/>
<path d="M41.1086 22.4013C41.3085 22.4013 41.4706 22.5643 41.4706 22.7655C41.4706 22.9667 41.3085 23.1297 41.1086 23.1297C40.9087 23.1297 40.7466 22.9667 40.7466 22.7655C40.7466 22.5643 40.9087 22.4013 41.1086 22.4013Z" stroke="#19AE1A" stroke-width="0.4" mask="url(#path-1-outside-1_800_1629)"/>
<path d="M10.3394 21.8549C10.5393 21.8549 10.7014 22.018 10.7014 22.2191C10.7014 22.4203 10.5393 22.5834 10.3394 22.5834C10.1394 22.5834 9.97738 22.4203 9.97738 22.2191C9.97738 22.018 10.1394 21.8549 10.3394 21.8549Z" stroke="#19AE1A" stroke-width="0.4" mask="url(#path-1-outside-1_800_1629)"/>
<path d="M8.34842 21.3085C8.6483 21.3085 8.8914 21.5531 8.8914 21.8549C8.8914 22.1566 8.6483 22.4013 8.34842 22.4013C8.04853 22.4013 7.80543 22.1566 7.80543 21.8549C7.80543 21.5531 8.04853 21.3085 8.34842 21.3085Z" stroke="#19AE1A" stroke-width="0.4" mask="url(#path-1-outside-1_800_1629)"/>
<path d="M40.3846 21.3085C40.5845 21.3085 40.7466 21.4716 40.7466 21.6728C40.7466 21.8739 40.5845 22.037 40.3846 22.037C40.1847 22.037 40.0226 21.8739 40.0226 21.6728C40.0226 21.4716 40.1847 21.3085 40.3846 21.3085Z" stroke="#19AE1A" stroke-width="0.4" mask="url(#path-1-outside-1_800_1629)"/>
<path d="M42.5566 20.58C42.7565 20.58 42.9186 20.7431 42.9186 20.9443C42.9186 21.1454 42.7565 21.3085 42.5566 21.3085C42.3566 21.3085 42.1946 21.1454 42.1946 20.9443C42.1946 20.7431 42.3566 20.58 42.5566 20.58Z" stroke="#19AE1A" stroke-width="0.4" mask="url(#path-1-outside-1_800_1629)"/>
<path fill-rule="evenodd" clip-rule="evenodd" d="M44.095 15.6485V19.1241L43.429 19.3991L43.8179 20.3766C44.2193 21.3865 44.0535 22.5311 43.3919 23.3827L43.6146 24.4484C43.8385 25.5187 43.234 26.537 42.2879 26.9024C42.3178 27.8462 42.6707 28.7522 43.2904 29.4649L44.6737 31.0553L45 30.9461V34.0638L24.0904 42L5 34.0578V30.9347L5.20822 31.0111C6.37416 29.8995 7.17639 28.4564 7.50742 26.8736C6.46611 26.4844 5.72402 25.4758 5.72398 24.2926V22.3486L5.74342 22.2999L6.7442 19.7815L5.181 19.1227V15.6496L5.36447 15.5866L24.369 9.03024L24.4563 9L44.095 15.6485ZM24.3665 38.4429V41.311L44.457 33.6857V31.7044L24.3665 38.4429ZM5.54299 33.6921L23.8235 41.2975V38.4365L5.54299 31.7158V33.6921ZM8.03344 27.0119C7.6951 28.6052 6.90965 30.0646 5.77347 31.2189L24.0986 37.9563L44.1148 31.2427L42.8818 29.8249C42.2039 29.0454 41.8074 28.0618 41.7499 27.0326C41.6746 27.0406 41.5981 27.0454 41.5204 27.0454C41.097 27.0454 40.6908 27.2147 40.3913 27.516L39.1275 28.7876C38.4991 29.42 37.5912 29.682 36.7251 29.4809C36.1091 29.3379 35.4618 29.4913 34.9738 29.8956L34.0706 30.6441C33.184 31.3787 32.0712 31.7805 30.9227 31.7805H30.707C30.1915 31.7805 29.6789 31.8605 29.1876 32.0178L25.9972 33.039L25.6801 33.1724C24.4497 33.6883 23.0397 33.5112 21.9733 32.7064L21.6169 32.4375C21.0831 32.0347 20.3999 31.8892 19.7497 32.0402C18.9081 32.2356 18.0239 32.0303 17.3526 31.4835L15.4087 29.9003C14.9079 29.4923 14.2484 29.339 13.6206 29.4848C12.7642 29.6837 11.8654 29.4402 11.2242 28.8353L9.9597 27.6422C9.55326 27.2588 9.0169 27.0454 8.45977 27.0454C8.31474 27.0454 8.17237 27.0338 8.03344 27.0119ZM6.26697 24.2926C6.26701 25.5111 7.24874 26.499 8.45977 26.499C9.1548 26.499 9.82381 26.7652 10.3309 27.2435L11.5957 28.4365C12.1049 28.9168 12.8186 29.1102 13.4987 28.9523C14.2893 28.7688 15.1199 28.9619 15.7505 29.4756L17.6941 31.0588C18.2356 31.4999 18.9489 31.6653 19.6278 31.5077C20.4339 31.3206 21.281 31.5009 21.9429 32.0004L22.2992 32.2693C23.2118 32.9579 24.4183 33.1095 25.4712 32.668L25.8007 32.53L25.8113 32.5254L25.8226 32.5218L29.0233 31.497C29.5677 31.3228 30.1357 31.2342 30.707 31.2342H30.9227C31.9453 31.2341 32.9362 30.8763 33.7256 30.2222L34.6288 29.4738C35.247 28.9615 36.0667 28.7676 36.8471 28.9488C37.5307 29.1075 38.2475 28.9005 38.7436 28.4013L40.0074 27.1297C40.4087 26.7259 40.9529 26.499 41.5204 26.499C42.5349 26.499 43.2923 25.5596 43.0833 24.5608L42.9037 23.7035L41.9468 24.1481C41.2057 24.4923 40.427 24.7476 39.6267 24.9086L39.048 25.025C38.4246 25.1504 37.8146 25.3363 37.2267 25.5799L35.0633 26.4759L32.9468 27.4078C32.4144 27.6422 31.8633 27.8316 31.2995 27.9734L30.8484 28.0869C30.2686 28.2327 29.7031 28.4314 29.159 28.6802L27.0259 29.6555C26.326 29.9757 25.566 30.1414 24.7971 30.1414C24.0581 30.1414 23.3269 29.9883 22.6492 29.6918L20.0802 28.5681C19.6869 28.3961 19.2763 28.2665 18.8557 28.1819L17.8213 27.9738C17.1022 27.829 16.4486 27.4544 15.958 26.9059L15.8357 26.7693C15.3707 26.2495 14.7084 25.9526 14.0134 25.9526H13.3421C12.6191 25.9526 11.9583 25.5415 11.635 24.8909C11.4036 24.4254 10.9308 24.1314 10.4136 24.1314H9.9247C9.56496 24.1314 9.20882 24.0591 8.87726 23.9187L6.26697 22.8125V24.2926ZM24.5602 27.2069L24.456 27.2503L24.352 27.2061L7.24512 19.9928L6.34651 22.2533L9.08795 23.415C9.35283 23.5272 9.63731 23.585 9.9247 23.5851H10.4136C11.1365 23.5851 11.7974 23.9962 12.1207 24.6468C12.352 25.1123 12.8249 25.4062 13.3421 25.4063H14.0134C14.8623 25.4063 15.6715 25.7688 16.2394 26.4037L16.3617 26.5406C16.7741 27.0016 17.3233 27.3164 17.9277 27.4381L18.9625 27.6462C19.4207 27.7384 19.868 27.8795 20.2966 28.067L22.8655 29.191C23.4749 29.4576 24.1326 29.5951 24.7971 29.5951C25.4885 29.5951 26.172 29.4462 26.8015 29.1583L28.9342 28.1826C29.5082 27.92 30.1048 27.7108 30.7166 27.5569L31.168 27.443C31.7023 27.3086 32.2245 27.1295 32.7291 26.9074L34.8459 25.9754L34.8515 25.9733L37.0199 25.0748C37.6402 24.8178 38.2838 24.6216 38.9416 24.4893L39.5199 24.3729C40.2785 24.2203 41.0167 23.9781 41.7191 23.6519L42.9295 23.0896C43.5011 22.3866 43.6501 21.4254 43.3138 20.5793L42.927 19.6068L24.5602 27.2069ZM24.7285 23.68V26.5467L43.552 18.7578V16.2454L24.7285 23.68ZM5.72398 18.7592L24.1855 26.5435V23.6786L5.72398 16.2482V18.7592ZM6.23197 15.8644L24.4577 23.1998L43.0303 15.8644L24.4574 9.5766L6.23197 15.8644Z" stroke="#19AE1A" stroke-width="0.4" mask="url(#path-1-outside-1_800_1629)"/>
</svg>
