<svg width="50" height="50" viewBox="0 0 50 50" fill="none" xmlns="http://www.w3.org/2000/svg">
<g clip-path="url(#clip0_800_1607)">
<path d="M15.2008 15.7001C15.3665 15.7001 15.5008 15.8344 15.5008 16.0001V17.7001H17.2008C17.3665 17.7001 17.5008 17.8344 17.5008 18.0001C17.5007 18.1657 17.3664 18.3001 17.2008 18.3001H15.5008V20.0001C15.5007 20.1657 15.3664 20.3001 15.2008 20.3001C15.0351 20.3001 14.9008 20.1657 14.9008 20.0001V18.3001H13.2008C13.0351 18.3001 12.9008 18.1657 12.9008 18.0001C12.9008 17.8344 13.0351 17.7001 13.2008 17.7001H14.9008V16.0001C14.9008 15.8344 15.0351 15.7001 15.2008 15.7001Z" fill="#19AE1A"/>
<path d="M34.8008 15.7001C34.9665 15.7001 35.1008 15.8344 35.1008 16.0001V17.7001H36.8008C36.9665 17.7001 37.1008 17.8344 37.1008 18.0001C37.1007 18.1657 36.9664 18.3001 36.8008 18.3001H35.1008V20.0001C35.1007 20.1657 34.9664 20.3001 34.8008 20.3001C34.6351 20.3001 34.5008 20.1657 34.5008 20.0001V18.3001H32.8008C32.6351 18.3001 32.5008 18.1657 32.5008 18.0001C32.5008 17.8344 32.6351 17.7001 32.8008 17.7001H34.5008V16.0001C34.5008 15.8344 34.6351 15.7001 34.8008 15.7001Z" fill="#19AE1A"/>
<path fill-rule="evenodd" clip-rule="evenodd" d="M15.9676 10.386L22.8035 10.4008L23.3648 10.627C23.682 10.7549 24.1598 11.0669 24.4637 11.3446L25.0008 11.836L25.5383 11.3446C25.8418 11.0673 26.3202 10.7549 26.6371 10.627L27.198 10.4005H41.5535L42.1188 10.6282C42.9118 10.9483 43.7433 11.7423 44.1012 12.5212C44.3746 13.1164 44.384 13.1894 44.418 14.9708C44.4372 15.9806 44.4819 16.7913 44.5172 16.7723C45.2818 16.3607 45.6193 16.2627 46.3875 16.2297C47.46 16.1837 48.122 16.4157 48.8707 17.1001C49.3875 17.5724 49.9029 18.4088 49.9031 18.7747C49.9031 18.8747 49.9472 18.9295 50.0008 18.8965C50.0654 18.8566 50.0988 20.8141 50.0988 24.6954C50.0988 28.4963 50.0642 30.5761 50.0008 30.6153C49.9472 30.6486 49.9032 30.7538 49.9031 30.8493C49.9031 31.1802 49.3088 32.2113 48.9105 32.5712C48.3577 33.0706 47.565 33.4125 46.8207 33.4723L46.2008 33.5219L46.1723 36.3383C46.144 39.1209 46.1409 39.1578 45.9211 39.3774C45.7042 39.5942 45.6489 39.5997 43.702 39.5997C41.8334 39.5997 41.6935 39.5872 41.5176 39.4044C41.4006 39.2827 41.0174 38.1407 40.5016 36.377L39.6734 33.545H10.3285L9.50039 36.377C8.98458 38.1407 8.60137 39.2827 8.48438 39.4044C8.3085 39.5872 8.16835 39.5997 6.29961 39.5997C4.35288 39.5997 4.29771 39.5941 4.08086 39.3774C3.86104 39.1578 3.85791 39.1209 3.82969 36.3383L3.80117 33.5219L3.16563 33.4712C1.91984 33.3712 0.851764 32.6187 0.307031 31.4571L0.05 30.9083V27.0294C0.0543777 28.5621 0.0633886 28.9364 0.0742188 27.7587C0.0892569 26.1339 0.0892575 23.4752 0.0742188 21.8505C0.063394 20.6735 0.0543803 21.047 0.05 22.5778V18.7012L0.322656 18.1454C0.678437 17.421 1.48616 16.6812 2.22305 16.4047C2.67744 16.2344 2.94209 16.2009 3.61406 16.2297C4.38237 16.2627 4.72013 16.3607 5.48477 16.7723C5.52002 16.7913 5.56475 15.9806 5.58398 14.9708C5.61797 13.1935 5.62813 13.1152 5.89844 12.527C6.39622 11.4438 7.47826 10.6218 8.63828 10.4458C8.91064 10.4046 12.2085 10.3778 15.9676 10.386ZM5.22539 38.2325L7.50313 38.2872L7.6043 37.9669C7.82413 37.2672 8.88625 33.6162 8.8875 33.5559C8.8875 33.523 8.05195 33.4962 7.03047 33.4962H5.17305L5.22539 38.2325ZM42.9715 33.4962C41.95 33.4962 41.1141 33.523 41.1141 33.5559C41.1152 33.6159 42.1782 37.2673 42.398 37.9669L42.4984 38.2872L44.7762 38.2325L44.8289 33.4962H42.9715ZM3.57422 17.5962C2.99078 17.5684 2.81281 17.6003 2.44258 17.7981C2.15298 17.9528 1.90331 18.1939 1.71016 18.5055L1.4168 18.9786L1.3875 24.6505C1.36709 28.5613 1.39134 30.4356 1.46523 30.6899C1.60576 31.1721 2.09903 31.7249 2.58789 31.9469C2.96289 32.1172 3.90917 32.1247 25.0008 32.1247C46.226 32.1247 47.0362 32.118 47.4129 31.9438C47.6277 31.8444 47.9224 31.6366 48.0672 31.4821C48.6445 30.8665 48.6336 30.9909 48.6336 24.827V19.179L48.3777 18.6649C48.2108 18.33 47.9838 18.0594 47.7258 17.8887C47.3776 17.6584 47.2335 17.627 46.534 17.627C45.8346 17.627 45.6907 17.6584 45.3426 17.8887C45.0846 18.0594 44.8575 18.33 44.6906 18.6649L44.4344 19.179V22.9942C44.4344 27.3478 44.4417 27.3037 43.6496 27.7098L43.2211 27.9297H6.78086L6.35234 27.7098C5.56025 27.3037 5.56719 27.3478 5.56719 22.9942V19.179L5.31133 18.6649C4.94561 17.9309 4.4707 17.6387 3.57422 17.5962ZM6.93438 26.5626H24.4008V24.1212H6.93438V26.5626ZM25.6008 26.5626H43.0672V24.1212H25.6008V26.5626ZM22.5496 11.8235C21.9533 11.6961 9.35053 11.6972 8.70078 11.8247C8.09844 11.9429 7.57891 12.3172 7.25742 12.8641L6.9832 13.3301L6.92734 22.754H24.3172V13.5149L24.0602 12.9985C23.7504 12.3769 23.2249 11.9683 22.5496 11.8235ZM41.2207 11.818C40.4107 11.6644 27.9135 11.6975 27.3273 11.8547C26.6953 12.025 26.2384 12.4035 25.9387 13.0047L25.6844 13.5149V22.754H43.0746L43.0184 13.3301L42.7445 12.8641C42.4076 12.291 41.909 11.9486 41.2207 11.818Z" fill="#19AE1A"/>
<path d="M0.05 27.0294C0.0483383 26.4475 0.0468751 25.6988 0.046875 24.8047C0.046875 23.9095 0.0483343 23.1599 0.05 22.5778V27.0294Z" fill="#19AE1A"/>
</g>
<defs>
<clipPath id="clip0_800_1607">
<rect width="50" height="50" fill="white"/>
</clipPath>
</defs>
</svg>
