<svg width="24" height="24" viewBox="0 0 24 24" fill="none" xmlns="http://www.w3.org/2000/svg">
<path d="M17.6593 6.58887C17.5214 6.451 17.3343 6.37285 17.1393 6.37273L9.38394 6.37342L9.38325 6.37273C9.28451 6.36925 9.18548 6.38569 9.09323 6.42107C9.00114 6.45641 8.91702 6.51004 8.84602 6.57851C8.77493 6.64713 8.71821 6.72994 8.6796 6.82089C8.64104 6.91174 8.62162 7.00946 8.6216 7.10815C8.6216 7.20679 8.64111 7.30459 8.6796 7.39541C8.71821 7.48636 8.77493 7.56917 8.84602 7.63779C8.91703 7.70632 9.00111 7.75986 9.09323 7.79523C9.18516 7.83049 9.28348 7.8469 9.38187 7.84357H15.3633L6.27447 16.9324C6.13658 17.0703 6.05902 17.258 6.05902 17.453C6.05911 17.648 6.13726 17.8351 6.27516 17.973C6.41297 18.1107 6.59963 18.1883 6.79444 18.1885C6.98951 18.1885 7.17714 18.1109 7.3151 17.973L16.4046 8.88351L16.4039 14.867H16.4053C16.4021 14.965 16.4171 15.0627 16.4523 15.1543C16.4876 15.2465 16.5418 15.3311 16.6104 15.4022C16.6789 15.4731 16.7613 15.5293 16.8521 15.5679C16.943 15.6065 17.0413 15.6266 17.14 15.6266C17.2385 15.6265 17.3359 15.6063 17.4266 15.5679C17.5175 15.5293 17.6003 15.4725 17.669 15.4015C17.7375 15.3304 17.7911 15.2464 17.8264 15.1543C17.8618 15.062 17.8782 14.963 17.8748 14.8642V7.10815C17.8746 6.91333 17.797 6.72668 17.6593 6.58887Z" fill="#19AE1A" stroke="#19AE1A" stroke-width="0.1"/>
</svg>
