<svg width="60" height="60" viewBox="0 0 60 60" fill="none" xmlns="http://www.w3.org/2000/svg">
<rect width="60" height="60" rx="30" fill="#1877F2"/>
<path fill-rule="evenodd" clip-rule="evenodd" d="M25.482 15.2079C25.003 15.4504 24.9565 15.514 23.9989 17.2351L23.3034 18.4852L21.5139 18.5242C19.5756 18.5666 19.4902 18.5844 19.0317 19.0427C18.5736 19.5008 18.5555 19.587 18.5132 21.5187L18.4741 23.3022L17.1067 24.0662C15.5618 24.9292 15.2282 25.2042 15.0789 25.7372C14.8936 26.3991 14.9817 26.6724 15.9249 28.3617C16.4029 29.2179 16.7941 29.9588 16.7941 30.0082C16.7941 30.0576 16.4005 30.8024 15.9194 31.6632C15.1372 33.0631 15.0412 33.2767 15.0117 33.685C14.9857 34.0455 15.0156 34.2178 15.1545 34.5044C15.3708 34.9512 15.5795 35.1042 17.2149 36.0156L18.5132 36.7391V38.4437V40.1484L18.7315 40.5662C18.8904 40.8702 19.0537 41.0484 19.3307 41.2198L19.7115 41.4553L21.5028 41.4944L23.2941 41.5335L24.0764 42.9398C24.5067 43.7133 24.9313 44.425 25.0199 44.5212C25.3234 44.8509 25.8207 45.0317 26.3237 44.9954C26.7319 44.9659 26.9471 44.8695 28.3491 44.0878C29.2119 43.6068 29.9548 43.2133 29.9999 43.2133C30.045 43.2133 30.7878 43.6068 31.6506 44.0878C33.0527 44.8695 33.2679 44.9659 33.676 44.9954C34.1791 45.0317 34.6764 44.8509 34.9799 44.5212C35.0685 44.425 35.4931 43.7133 35.9233 42.9398L36.7057 41.5335L38.497 41.4944L40.2883 41.4553L40.669 41.2198C40.946 41.0484 41.1094 40.8702 41.2682 40.5662L41.4865 40.1484V38.4446V36.7408L42.7623 36.0329C43.4639 35.6435 44.179 35.2227 44.3515 35.0978C44.7939 34.7773 45.0289 34.2505 44.9871 33.6727C44.9587 33.2799 44.8538 33.0473 44.0803 31.6632C43.5992 30.8024 43.2056 30.0581 43.2056 30.0093C43.2056 29.9605 43.5967 29.2209 44.0745 28.3658C45.018 26.6773 45.1068 26.4015 44.9208 25.7372C44.7692 25.1956 44.4167 24.9051 42.8693 24.046L41.4865 23.2783L41.4861 21.663C41.4858 20.7655 41.4488 19.9151 41.4028 19.7492C41.3571 19.5851 41.193 19.3103 41.0379 19.1386C40.5328 18.5797 40.4837 18.5678 38.4859 18.5242L36.6964 18.4852L36.0008 17.2351C35.0316 15.493 34.9977 15.4472 34.4961 15.2018C33.7528 14.8382 33.5086 14.9012 31.6661 15.9319C30.8071 16.4123 30.061 16.8054 30.0078 16.8054C29.9548 16.8054 29.2031 16.4116 28.3376 15.9302C26.9538 15.1607 26.7116 15.0516 26.3307 15.0263C25.9788 15.0031 25.8196 15.0371 25.482 15.2079ZM36.4074 25.0627C36.3429 25.0855 34.5064 26.8837 32.3262 29.0588L28.3622 33.0135L26.459 31.1207L24.5558 29.228H24.1957C23.6548 29.228 23.397 29.478 23.397 30.002V30.3989L25.6238 32.6265C27.8743 34.8777 28.1338 35.0866 28.5335 34.9688C28.6308 34.94 30.6709 32.9599 33.067 30.5684C36.5186 27.1234 37.4329 26.1695 37.4693 25.9758C37.5765 25.4045 36.9544 24.8696 36.4074 25.0627Z" fill="#FAFAFA"/>
</svg>
