<svg width="60" height="60" viewBox="0 0 60 60" fill="none" xmlns="http://www.w3.org/2000/svg">
<rect width="60" height="60" rx="30" fill="#1877F2"/>
<path fill-rule="evenodd" clip-rule="evenodd" d="M20.6203 16.0842C18.7 16.402 17.1444 17.817 16.6573 19.689C16.5343 20.1618 16.5177 20.4838 16.5177 22.3954V24.5652L16.7224 24.2478C16.9561 23.8856 17.2723 23.6052 17.702 23.3793L17.9995 23.2228L31.0797 23.2043C42.5716 23.188 44.2055 23.1988 44.5355 23.2931C44.7421 23.3521 44.9305 23.4004 44.9542 23.4004C45.0428 23.4004 44.992 20.5211 44.8941 19.9898C44.5125 17.9192 42.8581 16.396 40.6114 16.0469L40.3095 16L40.2861 17.4797C40.2602 19.12 40.2261 19.26 39.7759 19.5756C39.4259 19.821 38.8242 19.809 38.4783 19.5497C38.0247 19.2096 37.9858 19.043 37.9858 17.4389V16.0107H30.8298H23.6737L23.6734 17.4141C23.673 18.753 23.6653 18.8298 23.5065 19.0877C23.2687 19.4739 22.988 19.6335 22.546 19.634C22.1085 19.6346 21.7704 19.4427 21.5453 19.0659C21.4116 18.8422 21.3945 18.6772 21.3733 17.4141L21.3498 16.0107L21.1565 16.0191C21.0501 16.0237 20.8088 16.053 20.6203 16.0842ZM18.6515 25.4588C18.6276 25.4966 18.5301 26.0177 18.4347 26.6167C18.0879 28.7939 17.4085 31.485 16.7081 33.4556C16.4423 34.2032 15.7018 35.9791 15.2602 36.9275C15.117 37.2353 14.9999 37.587 15 37.7091C15.0003 37.9675 15.2175 38.3505 15.426 38.4602C15.5278 38.5138 19.0767 38.5309 27.3747 38.518L39.1785 38.4996L39.5381 38.3257C40.3171 37.9489 40.6219 37.4874 41.4888 35.3732C42.6073 32.6448 43.3143 30.1824 43.7278 27.5733C43.9896 25.9216 44.0224 25.5278 43.9043 25.4542C43.7632 25.3663 18.7067 25.3709 18.6515 25.4588ZM33.685 28.224C33.5025 28.3096 32.6632 29.0826 31.4096 30.32L29.4232 32.2804L28.1207 31.0108C26.8243 29.7473 26.5181 29.5112 26.1758 29.5112C25.706 29.5112 25.1662 29.929 25.0398 30.3904C24.8764 30.9871 24.9054 31.028 26.8787 32.9808C27.879 33.9707 28.7852 34.8261 28.8926 34.8815C29.1232 35.0007 29.5814 35.0128 29.8673 34.9073C29.9792 34.866 31.2014 33.7232 32.5833 32.3679C35.3202 29.6833 35.3964 29.5879 35.2445 29.0337C35.0464 28.3104 34.3127 27.9295 33.685 28.224ZM44.682 33.2415C44.3056 34.3911 43.5227 36.3695 42.9808 37.5404C42.2728 39.0703 41.6349 39.7869 40.4796 40.3507C39.4994 40.829 40.1245 40.8063 27.8842 40.8077C21.7917 40.8083 16.8068 40.828 16.8068 40.8513C16.8068 40.8747 16.9386 41.1429 17.0998 41.4474C17.6652 42.5156 18.6986 43.3853 19.8633 43.7732L20.4571 43.9708L30.5406 43.9908C41.7097 44.0128 41.1306 44.0348 42.1495 43.5519C43.4311 42.9445 44.3086 41.9636 44.7623 40.6313L44.9559 40.0628L44.981 36.7232C44.9947 34.8865 44.9959 33.1598 44.9836 32.8863L44.9612 32.3889L44.682 33.2415Z" fill="#FAFAFA"/>
</svg>
