<svg width="60" height="60" viewBox="0 0 60 60" fill="none" xmlns="http://www.w3.org/2000/svg">
<rect width="60" height="60" rx="30" fill="#1877F2"/>
<path fill-rule="evenodd" clip-rule="evenodd" d="M29.894 15.0613C29.5874 15.1379 29.3166 15.3141 29.0853 15.5878C28.9496 15.7483 28.3868 17.015 27.1449 19.9554L25.3958 24.097L21.3234 24.4665C16.5988 24.8953 16.4702 24.9101 16.1817 25.0606C15.644 25.3411 15.3254 25.872 15.3258 26.4871C15.3262 27.2241 15.2754 27.1686 18.8601 30.3547C20.6139 31.9134 22.1259 33.2557 22.2201 33.3375L22.3914 33.4863L21.4141 37.8491C20.8321 40.4468 20.4376 42.3318 20.4389 42.5081C20.4463 43.5683 21.6403 44.3377 22.5967 43.8984C22.7371 43.8339 24.5092 42.7791 26.5347 41.5543C28.7159 40.2355 30.2579 39.3382 30.3166 39.3538C30.3711 39.3682 32.0874 40.3922 34.1308 41.6293C36.174 42.8665 37.9353 43.9101 38.0447 43.9486C38.9968 44.2826 40.0942 43.5129 40.0985 42.5081C40.0993 42.3346 39.6955 40.4047 39.1237 37.8488L38.1476 33.4856L38.3185 33.3377C38.4125 33.2563 39.9243 31.9144 41.6781 30.3557C45.0001 27.4032 45.1835 27.2158 45.1872 26.7689C45.1879 26.6794 45.2149 26.6061 45.2471 26.6061C45.2792 26.6061 45.3051 26.5194 45.3047 26.4136C45.304 26.2675 45.2901 26.2425 45.2471 26.3099C45.2034 26.3783 45.1898 26.3578 45.1881 26.2211C45.1832 25.8146 44.8143 25.2959 44.3653 25.0641C44.0625 24.9077 43.9418 24.8936 39.2428 24.4657L35.14 24.0921L33.3728 19.9036C31.688 15.9105 31.5933 15.7037 31.3433 15.4704C31.1991 15.3359 30.995 15.1893 30.8897 15.1448C30.6226 15.0318 30.1655 14.9935 29.894 15.0613ZM15.3047 26.4876C15.3047 26.6016 15.3167 26.6483 15.3314 26.5913C15.3462 26.5342 15.3462 26.441 15.3314 26.384C15.3167 26.3269 15.3047 26.3736 15.3047 26.4876Z" fill="#FAFAFA"/>
</svg>
