<svg width="18" height="18" viewBox="0 0 18 18" fill="none" xmlns="http://www.w3.org/2000/svg">
<path d="M14.8737 3.09204C14.1096 2.32046 13.1995 1.70868 12.1966 1.29234C11.1937 0.876003 10.1179 0.66344 9.03203 0.667037C4.48203 0.667037 0.773698 4.37537 0.773698 8.92537C0.773698 10.3837 1.15703 11.8004 1.8737 13.0504L0.707031 17.3337L5.08203 16.1837C6.29036 16.842 7.6487 17.192 9.03203 17.192C13.582 17.192 17.2904 13.4837 17.2904 8.9337C17.2904 6.72537 16.432 4.65037 14.8737 3.09204ZM9.03203 15.792C7.7987 15.792 6.59036 15.4587 5.53203 14.8337L5.28203 14.6837L2.68203 15.367L3.3737 12.8337L3.20703 12.5754C2.52165 11.4813 2.1578 10.2164 2.15703 8.92537C2.15703 5.14204 5.24036 2.0587 9.0237 2.0587C10.857 2.0587 12.582 2.77537 13.8737 4.07537C14.5134 4.71192 15.0203 5.46916 15.3651 6.30314C15.7098 7.13713 15.8855 8.03128 15.882 8.9337C15.8987 12.717 12.8154 15.792 9.03203 15.792ZM12.7987 10.6587C12.5904 10.5587 11.5737 10.0587 11.3904 9.9837C11.1987 9.91704 11.0654 9.88371 10.9237 10.0837C10.782 10.292 10.3904 10.7587 10.2737 10.892C10.157 11.0337 10.032 11.0504 9.8237 10.942C9.61536 10.842 8.9487 10.617 8.16536 9.91704C7.5487 9.36704 7.14036 8.69204 7.01536 8.4837C6.8987 8.27537 6.9987 8.16704 7.10703 8.0587C7.1987 7.96704 7.31536 7.81704 7.41536 7.70037C7.51536 7.5837 7.55703 7.49204 7.6237 7.3587C7.69036 7.21704 7.65703 7.10037 7.60703 7.00037C7.55703 6.90037 7.14036 5.8837 6.9737 5.46704C6.80703 5.06704 6.63203 5.11704 6.50703 5.1087H6.10703C5.96536 5.1087 5.7487 5.1587 5.55703 5.36704C5.3737 5.57537 4.84036 6.07537 4.84036 7.09204C4.84036 8.1087 5.58203 9.09204 5.68203 9.22537C5.78203 9.36704 7.14036 11.4504 9.20703 12.342C9.6987 12.5587 10.082 12.6837 10.382 12.7754C10.8737 12.9337 11.3237 12.9087 11.682 12.8587C12.082 12.8004 12.907 12.3587 13.0737 11.8754C13.2487 11.392 13.2487 10.9837 13.1904 10.892C13.132 10.8004 13.007 10.7587 12.7987 10.6587Z" fill="black"/>
</svg>
